/* XPM */
static char *grd[] = {
/* columns rows colors chars-per-pixel */
"128 128 47 1 ",
"  c None",
". c black",
"X c gray12",
"o c #2B230F",
"O c #232323",
"+ c #2F2F2F",
"@ c gray20",
"# c #373737",
"$ c #43331B",
"% c #4B3B1B",
"& c #434301",
"* c #535301",
"= c #6B6B01",
"- c #5F4323",
"; c #6F4B27",
": c #774F2B",
"> c #434343",
", c #4B4B4B",
"< c gray34",
"1 c #5B5B5B",
"2 c #676767",
"3 c gray45",
"4 c #7B7B7B",
"5 c #83532F",
"6 c #8B5B33",
"7 c #935F37",
"8 c #9F633B",
"9 c #AB6B43",
"0 c #B77347",
"q c #BF7B4B",
"w c #D38353",
"e c #DF8B57",
"r c #EB8F5B",
"t c #F3975F",
"y c #FF9F63",
"u c #FFA773",
"i c #007FCF",
"p c gray56",
"a c #9B9B9B",
"s c gray67",
"d c #B7B7B7",
"f c #FFB383",
"g c #FFBF9F",
"h c #FFCFB3",
"j c #C3C3C3",
"k c LightGray",
"l c #EFEFEF",
/* pixels */
"                                                                                                                                ",
"                                                                                                                                ",
"                                                                                                                                ",
"                                                                                                                                ",
"                                                                                                                                ",
"                                                                                                                                ",
"                                                                                                                                ",
"                                                                                                                                ",
"                                                                                                                                ",
"                                                                                                                                ",
"                                                                                                                                ",
"                                                                                                                                ",
"                                                                                                                                ",
"                                                                                                                                ",
"                                                                                                                                ",
"                                                                                                                                ",
"                                                                                                                                ",
"                                                                                                                                ",
"                                                                                                                                ",
"                                                                                                                                ",
"                                                                                                                                ",
"                                                                                                                                ",
"                                                                                                                                ",
"                                                                                                                                ",
"                                                                                                                                ",
"                                                                                                                                ",
"                                                                                                                                ",
"                                                                                                                                ",
"                                                                                                                                ",
"                                                                                                                                ",
"                                                                                                                                ",
"                                                                                                                                ",
"                                                                                                                                ",
"                                                                                                                                ",
"                                                                                                                                ",
"                                                                                                                                ",
"                                                                                                                                ",
"                                                              ###><<<,                                                          ",
"                                                            #,44433222<#                                                        ",
"                                                           #,4333331<<<<#                                                       ",
"                                                          #>43433332<<<>##                                                      ",
"                                                          #,43433333<<<,##                                                      ",
"                                                          <2234333331<<>#<                                                      ",
"                                                          #3444333332<<,>#                                                      ",
"                                                          ,<433223332,,,,>                                                      ",
"                                                         #<ppaapppp443311<#                                                     ",
"                                                         ,<djjjjjsspp33<<<,                                                     ",
"                                                         <O.o&*==oo==*&...>                                                     ",
"                                                        #+.o$%i<$oo$<i%$o..#                                                    ",
"                                                       #X..$77--5w8:--77$..X#                                                   ",
"                                                       ....-0rfy5e85yfr0-....                                                   ",
"                                                       ....$qryw,,57wyrq$....                                                   ",
"                                                        ....:wrw,,X%wrw5....                                                    ",
"                                                          ..:87allaX797%..                                                      ",
"                                                         r0..:<a..a#75:..                                                       ",
"                                                    eee88qw..%<2..2<::%..qqqqewe                                                ",
"                                                   weqww99q-..+<##<+%%..$q8997qrw                                               ",
"                                                 we988-7::8q..++XX++w8..98:97-8rre9                                             ",
"                                                wqqw8%oo:-588...++..9w8.:--9oo%8qqq9                                            ",
"                                              -:70ewttttee95555.+$:ehhrw$7qettyeye9::-                                          ",
"                                              -:7ewqqwtew9599ftr7quhww8wfq5qeewq89q9--                                          ",
"                                             -%-:88790we958wwtw7%rutuhryee750009877:-%-                                         ",
"                                             -%-:::5778e-7qwwfrw7%%09w8wye7-98775:::%%-                                         ",
"                                             -%--::5778q-5799fw7%9utthryee5-88775::-%%-                                         ",
"                                             ----:::::58%%777efq%%%99w8ww8--55:::::-$$-                                         ",
"                                              $--------5%$-88ew0:-8wugew05$%5-------$$                                          ",
"                                               $%%%%%%%%5%$--7q0:-%59q90:%%5:555::-%$                                           ",
"                                                $$$ooooooo$%%%%%%.%$$--%%$ooooooo$$$                                            ",
"                                                  5$%%$--$%::-XXXX,-0:9::-o-$$oo$                                               ",
"                                                  5-78-::-:::%-XXXX,:99:00%85:oo                                                ",
"                                                  ::98:07:7::55$XXXX,-0:98:85-o$                                                ",
"                                                  ::97:9::5::9%%oXXXX>:::7-5-$o$                                                ",
"                                                   :07:::::::7::-....XX-6:---o$                                                 ",
"                                                   :wq9777-:-5----.....X$---$-o                                                 ",
"                                                   :9wq975--$-555%$.....X$::o-o                                                 ",
"                                                    :7wq99:--$$$oooo.....X-:oo$                                                 ",
"                                                    -:777:-$----$$$;$.....Xoo$                                                  ",
"                                                    ...........aaaa...........                                                  ",
"                                                    ...........kda3...........                                                  ",
"                                                    ...........daa2...........                                                  ",
"                                                    w07::58887::--::9q009:55$o                                                  ",
"                                                   ww07:7999997:-$::90097:-5$oo                                                 ",
"                                                  wrttttrq0qq07:-$:799989:::-$$                                                 ",
"                                                  wttttteq0qq07:-$:7999895:7-%$$                                                ",
"                                                 wrttttrq0qqq07:-$:799989777-%$$                                                ",
"                                                 wrttttrq0qqq07:$$:799999778-%$$o                                               ",
"                                                wrttttteq0qqq07-$o-799999978:%$$o                                               ",
"                                                wrttttrq0qqqq9:$oo$709999977:%$$o                                               ",
"                                                wrtttteq0qqq9:-oo$$$70099997:%$$oo                                              ",
"                                                wrttttq0qqq9:-oo$$$$$70009877:--$o                                              ",
"                                                7777::::::::-oo$$%$$$$$$$$$$$$$$oo                                              ",
"                                                qqqqqq9975:-$o$$%-$$-:79900ww5:%$o                                              ",
"                                                00qqrtw9997:-$$$o$$--:9weerfy8:$$o                                              ",
"                                               0000etyw90q9:-$$o  $--89weryfy5-$$$                                              ",
"                                               999qtyyw90q95-$oo   --89qeryff5$$oo$                                             ",
"                                               99qryuyw90q95-$oo   %-79qeruff5$ooo$                                             ",
"                                              99qeyuuy999095-$o     -7799ruff77-oo$                                             ",
"                                              9qwruuue89899:-$o     ---79ruff977-o--                                            ",
"                                              9wetuue977887:-o       -:9wryufw997:-:                                            ",
"                                              0etufyw7::787-$o       :9wqqyuff99995:                                            ",
"                                             90eyufy9-:::5:$$o       9qq0qyuff077995                                            ",
"                                             0weyufy7--::-%$$        799:eyuffw75799-                                           ",
"                                             0weyufu7--7-%%$$        :7::eyyufw75559-                                           ",
"                                            89weyufu--:7-$$$$        :--9eryufr-:::7-                                           ",
"                                            89weyufw--58-$$$$        %$:wertutr---::$                                           ",
"                                            88qeryu8-::58-$$          799wweetw5$---$                                           ",
"                                           :5:9qrrr5-:555:-$          5790w0wtw7o$$$o                                           ",
"                                           :::79009--:55:--           ::79779qq7ooo$$                                           ",
"                                           --::5798-------$            ::5555575%$%--                                           ",
"                                           %%-:::::---$$$-$            %%%%::78q8:XX                                            ",
"                                            XX$$%:$$$$ooo.              ..XXXXXXXX..                                            ",
"                                            ..XXXOOXXXXX..              ...XXXXXX...                                            ",
"                                            ...++XXXXXXX.               ...OOXXXX...                                            ",
"                                            ..+++XXXXXXX                ..X#OOXXXX..                                            ",
"                                            ..+++XXXXXXX                ..XO#OXXXX..                                            ",
"                                            ..##+XXXXXXX                 ..X###XXX..                                            ",
"                                            ..##+XXXXXXX                  XX###XXX...                                           ",
"                                            ..##+XXXXXX                   X.X###XXXX..                                          ",
"                                            ..##+XXXXX                    ..X###XXXX..                                          ",
"                                            .X##XXX.XX                     ..X##OXX...                                          ",
"                                            XX##XXXX..                      XX##OXX...                                          ",
"                                            X###+XXX..                      X+###OOXX.                                          ",
"                                           +X###+XX.X..                    XX+#>>>>OO..                                         ",
"                                          +O###++XXXXX..                  X.+##>>>>OOX..                                        ",
"                                         O+#OOOOOXXXXX..                  ..+####OOXXX...                                       ",
"                                        OOXOOOOXXXX.X..                    ..##OOXXXXXXX..                                      ",
"                                        XXXXXXXXXXXX..                      ...XXXXXXXXX..                                      ",
"                                        XXXXXXXXXXXX.                        .XXXXXXXXXX..                                      "
};
