/* XPM */
static char *mut[] = {
/* columns rows colors chars-per-pixel */
"128 128 56 1 ",
"  c None",
". c black",
"X c #000001",
"o c #0B0001",
"O c #0F0001",
"+ c #1B0701",
"@ c gray12",
"# c #230B01",
"$ c #2B1701",
"% c #2B230F",
"& c #372301",
"* c #373701",
"= c #3F3301",
"- c #3B2F17",
"; c #232323",
": c #2F2F2F",
"> c gray20",
", c #373737",
"< c gray23",
"1 c #4B0001",
"2 c #43331B",
"3 c #4B3B1B",
"4 c #573F1F",
"5 c #434301",
"6 c #4B4301",
"7 c #4F4F01",
"8 c #4F5F01",
"9 c #535301",
"0 c #5F5F01",
"q c #6B6B01",
"w c #777701",
"e c #4B4B4B",
"r c gray34",
"t c #676767",
"y c gray45",
"u c gray50",
"i c #A70001",
"p c #BF0001",
"a c #D70001",
"s c #FF0001",
"d c #9F4F01",
"f c #E76F01",
"g c #878701",
"h c #939301",
"j c #F3975F",
"k c gray56",
"l c #9B9B9B",
"z c gray67",
"x c #B7B7B7",
"c c #C3C3C3",
"v c LightGray",
"b c #DFDFDF",
"n c #FFE3D3",
"m c #FFEBDF",
"M c #EFEFEF",
"N c white",
/* pixels */
"                                                                                                                                ",
"                                                                                                                                ",
"                                                                                                                                ",
"                                                                                                                                ",
"                                                                                                                                ",
"                                                                                                                                ",
"                                                                                                                                ",
"                                                                                                                                ",
"                                                                                                                                ",
"                                                                                                                                ",
"                                                                                                                                ",
"                                                                                                                                ",
"                                                                                                                                ",
"                                                                                                                                ",
"                                                                                                                                ",
"                                                                                                                                ",
"                                                                                                                                ",
"                                                                                                                                ",
"                                                                                                                                ",
"                                                                                                                                ",
"                                                                                                                                ",
"                                                                                                                                ",
"                                                                                                                                ",
"                                                                                                                                ",
"                                                                                                                                ",
"                                                                                                                                ",
"                                                                                                                                ",
"                                                                                                                                ",
"                                                                                                                                ",
"                                                                                                                                ",
"                                                                                                                                ",
"                                                                                                                                ",
"                                                                                                                                ",
"                                                                                                                                ",
"                                                                                                                                ",
"                                                                                                                                ",
"                                                                                                                                ",
"                                                                                                                                ",
"                                                                                                                                ",
"                                                                                                                                ",
"                                                           ;;;;;;;;;;;;                                                         ",
"                                                          <;;;;;;;;;;;;r                                                        ",
"                                                          <;;;;;;;;;;;;r                                                        ",
"                                                          <::;;;;;;;::<r                                                        ",
"                                                          ttr<<<<<<<<rtt                                                        ",
"                                                          yuttttttttttuy                                                        ",
"                                                          kklcmnnnnmclkk                                                        ",
"                                                          lkxNMbbbbMNxkl                                                        ",
"                                                         zxuxNNmccmNNxuxz                                                       ",
"                                                         zxyyffkllkffyyxz                                                       ",
"                                                         llyeasfyyfsaeyll                                                       ",
"                                                         uzye1iubbui1eyzu                                                       ",
"                                                         rzcNNNvNNvNNNczr                                                       ",
"                                                          ucvMuxNNxuMvcu                                                        ",
"                                                          ryxvrryyrrvxyr                                                        ",
"                                                           ylxudjjduxly                                                         ",
"                                                   &77 5555ulxl;;;;lxlu7555  =&                                                 ",
"                                                  &7075q007tlvxippixvlt7996==0=&                                                ",
"                                                ==50q75qqq5<lvxurruxvl<5qq9=5q5&==                                              ",
"                                              ==5&50q750qq5X<xxbMMbxx<X*0q0=5q5=&5==                                            ",
"                                             =57q=77q7570q5&X<lzxxzl<X&70q0=5q5=5q75=                                           ",
"                                           ===57q=75q5570q7&$XXXXXXXX&557q7=5q5=5w05&==                                         ",
"                                         =&&66700=7505567077&$$OO$$$&7*5707=505=5wq06&&&=                                       ",
"                                       =&&=6770q5=57056557757&&OO$$&7**5006=575=5qq077&&&&=                                     ",
"                                       ==70766605&=77506657575&OO&&7**57006=577=&70666707==                                     ",
"                                      5&&=60=&675+=57507=65575&OO&=555700775775=+576&=06=&&5                                    ",
"                                     =&=7096&$=75+&567076=675&&OO&&7700q0770065&+57=$&6907=&=                                   ",
"                                     =&=600=++&==O&=50077==6&$ette$&0qqqq00q75=&O=&&++=006=&=                                   ",
"                                    =&=lv6&$$+&==O+=570076=&$etllte$*0qqqqq07*$+O&+&+$$&6bv=&=                                  ",
"                                    =&=lv=$+++$&=OO+=567776&#ryllyr$&7777776*$+OO+O$+++$=Mve&=                                  ",
"                                   5=$$lv$+&$++$&OOO+======#$tkllkt$&=======$+OOOO$++*&+$Mvze=X                                 ",
"                                   =$eelv+&++&+++OOOO+$&&&&+$tleelt$&&&&&&$#+OOOO+++&*+&+Mvzt$=                                 ",
"                                   $elyvv$++&     OOO++####+$tu;;ur$#######+OOOO     &*+$Mvzt$$                                 ",
"                                   ekuyMM++&      O$+OO+#++O$eruur<$#####+OOO+$O      &*+Mvzl$$                                 ",
"                                   tkuuMM$&       O$$&&++++O&<e<<<<&OOOO+++$$$$O       &$Mvzzkk                                 ",
"                                   tkxuMM&         $O$$$&&&$$t<::<t$OOOO$$$$$O$         &Mvzvky                                 ",
"                                   tkkuMM          O&$OO$$$&$tkrrkt&OOO$$$OO$&O          MvzMkt                                 ",
"                                   tukuMM          X$&=$OOOO#tt<<tt&$&==OO$&&$X          bvzMkt                                 ",
"                                   tuxuxx          XX$&==&$$#&trrt&&66&&&==&$XX          vvkyyt                                 ",
"                                    tkkkk          *###$&6=&<&&&&&<&&&$===$###           kkyttt                                 ",
"                                                   *5&&#X&&&:eeeee:$$=66&X#&&+                                                  ",
"                                                  =075=&$#++;:rtr<:$&==&*5=++$                                                  ",
"                                                 =57q06=&###########$==*5=+$$$                                                  ",
"                                                 6=570q06=&$######&=655=$+$$##$                                                 ",
"                                                 99=66666666=&##=66===$$$$$###$                                                 ",
"                                                =79qwwq000966&##=5777775=&&$##$                                                 ",
"                                                67578800966==&##=5777775=&&$###&                                                ",
"                                               =700756======&&##2=57775=&&&$$##&                                                ",
"                                               =9qqqq9656===&$#+#=*57775==&&$###                                                ",
"                                              690qqq009999=&$#+++#****===&&&$###                                                ",
"                                              97*55****==&##++++++#&&&&&&&&#####                                                ",
"                                              9*57777565=&#+++$&+++########&&&&##                                               ",
"                                               *700q0567=&#++$$  ++&&&59955=5*&$#                                               ",
"                                               700qw0569=&#++$$  #$&=570qq7=&*&$#                                               ",
"                                               70qww0569=&#+$$   &$=570wgg0=&&&$$#                                              ",
"                                               00qgw0569=&#$$$   &$=*77wggq=&$$$$#                                              ",
"                                               0qwgw0557=&$$%$   =&*770gwgw*=&$$#+                                              ",
"                                              0qqwww0=*6=&$$%$   3=*50w0qww*5=&$#+                                              ",
"                                              0qwgwq7&=6=&$%%     3*7q07qww*55=&$+                                              ",
"                                              qwghwq5&=5=&$%$     3*0077qww9&=5*&#+                                             ",
"                                             0wghhw0=&=5=$-%$     4*7770qqw0&==**&+                                             ",
"                                             qghhgw7&&&==$-$      455570qqq0&&&=*-+                                             ",
"                                            0qghhgq5&&&&&&-$       **57qqqq0&&$&=*+                                             ",
"                                            7qghhgq=&&&&&&-$       **57qqqq0&$$$&*+                                             ",
"                                            67qggwq&&&&&&-$        **570qqq0*&&$$$;                                             ",
"                                            66qqwq7&&&&&&*$        4*5770000*&%%&$;                                             ",
"                                            &=60qq5&&&&$&*$         475777775*%%%%-                                             ",
"                                            ;&6507&&&=$#=*$         3755555555&&%%-%                                            ",
"                                            ;+=66*--6==&6%           477777775%&&%%X@                                           ",
"                                           @;;+$==6&$$=6*%           4*5555555&%&;XX@                                           ",
"                                           @@;XO@XXXXXXX;@             ;<,,;@@@@OXXXX                                           ",
"                                           @@;@OXXXXXXX;@@              <<,;@XXXOXXXXX                                          ",
"                                           @,,@@@@@@XXXX@               @@,,,,&&@@XXXX                                          ",
"                                           @,,,,,@@@XXXX@                 ,,,,&&@@XXXX                                          ",
"                                           ,,,,,,&@XXX@@@                 X,,&&@@@XXXX                                          ",
"                                            ,,,,&&@XXX@@                  XX,&@@@XXXX                                           ",
"                                            ,,&&&@XXXX@                    @XXXXXXXXX                                           ",
"                                            ,&&&@@XXX@@                    @XXXXXXXXX                                           ",
"                                           &&&@@XXXX@@@                     XXXXXXXXX                                           ",
"                                           @@@@XXXX@@@                      XXXXXXXXX                                           ",
"                                          @@XXXXXX@@@                       XX@@@@XXX                                           ",
"                                         @@XXXX&&XX@                        X@@@@@@XX                                           ",
"                                        @@&,,,,,&&XX                       X@@,,,,&&@@                                          ",
"                                       @@&,,,,,,&&XX                       X@,,,,,,&@@                                          ",
"                                      @@&,,,,,,,,&XX                      XX@@,,,,,&&&@                                         ",
"                                      @&,,,,,,,,,&XX                      XXX@,,,,,&&@@@                                        ",
"                                      @@&&&&&&&&@XX                        XX@@@@@@@@@@@                                        ",
"                                       @&&&&&&@@XX                          XX@@@@@@@@@@                                        "
};
