/* XPM */
static char *ss[] = {
/* columns rows colors chars-per-pixel */
"128 128 55 1 ",
"  c None",
". c black",
"X c #000018",
"o c #292108",
"O c gray13",
"+ c #313131",
"@ c #393939",
"# c #7B0000",
"$ c #423118",
"% c #4A3918",
"& c #5A4221",
"* c #734A29",
"= c #000042",
"- c #00004A",
"; c #00005A",
": c #000063",
"> c #000073",
", c #00007B",
"< c gray29",
"1 c gray32",
"2 c gray39",
"3 c gray45",
"4 c #7B7B7B",
"5 c #845229",
"6 c #945A31",
"7 c #A56339",
"8 c #E76B00",
"9 c #AD6B42",
"0 c #B57342",
"q c #BD7B4A",
"w c #848400",
"e c #FFCE18",
"r c #D68452",
"t c #DE8C52",
"y c #EF8C5A",
"u c #F7945A",
"i c #FF9C63",
"p c #FFA573",
"a c #00008C",
"s c #00009C",
"d c #0000A5",
"f c #0000AD",
"g c #0000BD",
"h c #0000CE",
"j c #0000E7",
"k c blue",
"l c #2121FF",
"z c gray55",
"x c gray61",
"c c gray68",
"v c #FFB584",
"b c #FFBD94",
"n c #FFC6A5",
"m c #FFD6BD",
"M c gray84",
/* pixels */
"                                                                                                                                ",
"                                                                                                                                ",
"                                                                                                                                ",
"                                                                                                                                ",
"                                                                                                                                ",
"                                                                                                                                ",
"                                                                                                                                ",
"                                                                                                                                ",
"                                                                                                                                ",
"                                                                                                                                ",
"                                                                                                                                ",
"                                                                                                                                ",
"                                                                                                                                ",
"                                                                                                                                ",
"                                                                                                                                ",
"                                                                                                                                ",
"                                                                                                                                ",
"                                                                                                                                ",
"                                                                                                                                ",
"                                                                                                                                ",
"                                                                                                                                ",
"                                                                                                                                ",
"                                                                                                                                ",
"                                                                                                                                ",
"                                                                                                                                ",
"                                                         ggkkkkkkgd                                                             ",
"                                                        d--gkkkkg--d                                                            ",
"                                                       aa>>-gllg-:>>a                                                           ",
"                                                      aaj>>-....-:>>aa                                                          ",
"                                                      adj>-------->>da                                                          ",
"                                                      sff>--....----fsa                                                         ",
"                                                     fff----.@@.-----ff                                                         ",
"                                                     f,f----....-----ff                                                         ",
"                                                     --,,fhhhhhhhhhf,--                                                         ",
"                                                     w&o,,,,,,,,,,,,,ow                                                         ",
"                                                    0e5&oooo%&&%ooooo5e0                                                        ",
"                                                    78r6o@>oo66oo>@o6r87                                                        ",
"                                                    07iyq955qvy65597ir70                                                        ",
"                                                    07ibbnprymiyrpniti70                                                        ",
"                                                     7tiiiq7r7767qittq7                                                         ",
"                                                     70rtu7py9r675uq997                                                         ",
"                                                      rqqu7<4cc4<5u779                                                          ",
"                                                      tqqu7.####.5u779                                                          ",
"                                                      tq0u5<cMMc<5u799                                                          ",
"                                                      &qqu9qpnnpq9i99&.                                                         ",
"                                                 ::X;X&6qyrr9999rry96&....                                                      ",
"                                            =>:aXXX;XX.&6qyibbbvvi06&..-;;..X==                                                 ",
"                                           =:XXX=;;;==...6ypibvviy6$...-;=.:,:XX                                                ",
"                                          >>XX===;:;:=....57777775$...X-=.=,:.X>X                                               ",
"                                         >====--=;:;,=X.+..$&&&$.............=>,=X                                              ",
"                                        ==>=;=::==,;,:X..+..&$..+....====...X>,:==X                                             ",
"                                        ==.===:-==;;,:-X.......<...:ss,:-===X,:XXX=X                                            ",
"                                       =::...:-====;:,,;XXXXXXXXX:as::,,::-==,:XXXX=X                                           ",
"                                       ===..X:-====;;:,,;;XXX=..:,s:::::-====,d:=XX:=                                           ",
"                                      ==::=.X-=====;;;:,,,=XX=>ss:;;;;---==X==,d:=XX:X                                          ",
"                                      =>;;=.X-=====;;;;;,,=XX=,:;;;;;;--===X,;;,,,=X:=                                          ",
"                                      =,;=..X-==-==;=;;;;,=XX=,:::::---===XXd:;,d,:=X:=                                         ",
"                                     =>,>;=.X-==;-=;==;;;,=XX=,=XXXXXXXXXXXX,,ddd,;=XX:X                                        ",
"                                     =aa;=..X;==;;-;;==;;;=XX=:=========XXXX=>,dd,>:=X:XX                                       ",
"                                     =a,==..X:==;;;;;===;;=XX=:=======XXXXXXX>>,d,>>:X:=X                                       ",
"                                    >=a>;;=.X::=-;;;;;===;=XX=:==------==X;XX=;;;;;::..==X                                      ",
"                                    >>a:==..X:,:===;;;===;=XX=:==------==X;XXXX======..==X                                      ",
"                                    =s,,=...X=:,::=;;;===;=XX============X;XX.XXXXXXX=,==XX                                     ",
"                                    =ss,,>;-.X=:::>;;====;=XXX===========X;X..=XXXXXX=,==XX                                     ",
"                                    =gggs:;;-.X=XXXXXXXXXXXXXX==========X=XXX.X==::d,::=.XX                                     ",
"                                    >>>----==..====22334411XX.XX=====<3===X...X==XXd:,:..XX                                     ",
"                                    =-->>>>>><<44444444444xxxX....XX=++=X....::d,dd,:=::...                                     ",
"                                    =-->>>>>>+<<<<<<<<<<<<1<222222222+<<O...,ddd,,;:,XX:...                                     ",
"                                    =>>>>>>>>+@@@@@@@@@@@@1+<<<<<1111+..+::dd,::::,:=XX:XXX                                     ",
"                                     >>>>>>>>+++++++++++++1.+++++++++++++;;::::::=:,===XXXX                                     ",
"                                     ==>>a+22O++++++++++++1.........O....1<+;=====:,=XX...                                      ",
"                                     ==>>+4xzOO+++++++++++1<@..@<@$96....11<+======:.XX..                                       ",
"                                     ====232..%0%....OOOOO+...7rrrqq99&o.+<1@+=====:X...                                        ",
"                                      ===12..%rr0%...O<O<++...7r9999995&.X@1<+===XX=X..                                         ",
"                                      =XX<1.%9ryvivv6O1O1++..7%%*r99995&.X+<@+XXXXX=..                                          ",
"                                       XX@<.*90vvivv6O1O1++..760ru99995&.XX@@+XXXXX..                                           ",
"                                        =@@.*ttirr6&&O1O1++..$5**669965%.XX++OX....                                             ",
"                                          @.*qtvvttt6O1O1++...69rr965*&$.XOOOXX..                                               ",
"                                           =*7qiv9766&X........&5555&%$........                                                 ",
"                                           ==67tr66&&&X.........&&&&$..........=                                                ",
"                                           ===6tttt96X.............======XXXX...                                                ",
"                                          =====90066*X.............======XXXX...=                                               ",
"                                          ===========XXXXXX......XXXXXXXXXXXXXX.=                                               ",
"                                          ==:::::::=XXXXXXX......XXXXXXXXXX..XX.=                                               ",
"                                          =:XXXXXXXXXXXXXXXX....XXXXXXXX=:::=XXX==                                              ",
"                                          XX===:>>:====XX.X...XXX====XXXXXXXX-:===                                              ",
"                                          ====:,>>:::===X.X=;:===---======:,:==:==                                              ",
"                                          ==:::daa:::===X.X=;;----------==:,::=X:=                                              ",
"                                          ====:da>:::===X..=;;;:,::::-=====,:;:XX=                                              ",
"                                         ===:,,a>>:::=..X...-:,,::::-======,:-;XX=                                              ",
"                                         ====:da>::--=..X...-;,::--========:,=-=X                                               ",
"                                         ====:da>::--...X...=;::-======:;:=;d===.                                               ",
"                                         ==,,,a::::--==.X..X=::----::>,a>:=:d:==X                                               ",
"                                        ===:,daaa::--XX==..X ;-=:,,,aaa,;==:d,=;X                                               ",
"                                        ===:,da::--==....=X. --:ssssaa::=X=:,d=;X                                               ",
"                                        =,::,,>::--==..XXXX   =;saaa;;=XXX=:,d===                                               ",
"                                        =:,,dddda--==XXXXXX   =;a;;;=X::==:>,d::=X                                              ",
"                                        ====dda::--===X.XXX   ==:===::==::>,,d,;;=                                              ",
"                                        =====da------=XX.XX    ===::;;:>,,,,,g,;;=X                                             ",
"                                        ===:,>>--------=.XX    ====;::>,,,,ggga=;;X                                             ",
"                                        ===>da:--====..==XX     ===;::>,add>>:,==;=X                                            ",
"                                       ====>da:>---=....:=     =;;;>,,aad:>====:===X                                            ",
"                                       ==>ass,,,>>>>-XXXX:     ;:::aaaa,>>:====:::=X:                                           ",
"                                       =>,sss>::::::::-=XXX   =;,,,,,,,>:::,:===;::::                                           ",
"                                       =,aa,,:=XXXXXXXX-=XXX  =;,,,,,,>:::,,:====::::                                           ",
"                                        =,,,,:=XXXXXXXXX-=XX  =;,,,,,,:::,d,:==XXXX::                                           ",
"                                        ;-,,,:=XXXXXX====XXX  =;::::::::,gd,:==XX=X::                                           ",
"                                         -;,,,:=XXXX==XXXXX   =====---=:,gd,:==XX=X.:                                           ",
"                                          --,,:XXXXXXXX....    =XX---==:,,,:=====X:.                                            ",
"                                            O..............     =XXX===:::=======..X                                            ",
"                                            .OOOO..........      ..OO...XXXXXXXXXXXX                                            ",
"                                             .XO...........       X@OOOXXXX.....XXXX                                            ",
"                                              ..OXXX........      X@OOOOXXX.....XXXX                                            ",
"                                               XO.XX.....OO..     X@+OOXXXXX..XXXXXX                                            ",
"                                               .@OO........X.     X+@OOOXXXX..XXXXX                                             ",
"                                               .OO.........X.      X@@@OOXXX..XXXX                                              ",
"                                               .@@OOOOO....X.      X+++@+++O..XXXX                                              ",
"                                              .OXX....O....X.       XO+OOXXX..XXX                                               ",
"                                              .OXXXX..O....X.       .O++O..X..XXX                                               ",
"                                            XXOXXXXX.O....X..       XXO+++O.....X                                               ",
"                                           XO@OOOOOOO....          XO+++OXX.....X                                               ",
"                                           XXXXXXX..O....          X+O++XXXX..XXX                                               ",
"                                           .XXXXXX..O....          X+OOOOXXX..XXXX                                              ",
"                                           .XXXXXX.....X           X+OOXXXXXXXXXXXX                                             ",
"                                                                   X+OO1<OOOOOOOO@XX                                            ",
"                                                                    XOO@XXXXXXXXX@XX                                            ",
"                                                                     XXXXXXX..XXXOXX                                            ",
"                                                                      XXXXXXXXXXXXXX                                            "
};
