/* XPM */
static char *torch_02[] = {
/* columns rows colors chars-per-pixel */
"30 30 9 1 ",
"  c black",
". c #2E1400",
"X c #582600",
"o c #5B3100",
"O c #6C2F00",
"+ c #A31B00",
"@ c #C36F00",
"# c #9E7557",
"$ c None",
/* pixels */
"$$$$$$$$$$$$$$$$$$$$$$$$$$$$$$",
"$$$$$$$$$$$$$$$$$$$$$$$$$$$$$$",
"$$$$$$$$$$$+$$$$$$$$$$$$$$$$$$",
"$$$$$$$$$$$+++$$$$$$$$$$$$$$$$",
"$$$$$$$$$$++@++++$$$$$$$$$$$$$",
"$$$$$$$$$$++++@@+$$$$$$$$$$$$$",
"$$$$$$$$$$$++@++@+$$$$$$$$$$$$",
"$$$$$$$$$$$+@@@@++$$$$$$$$$$$$",
"$$$$$$$$$$$+@@@++@+$$$$$$$$$$$",
"$$$$$$$$$$$+@@@@@@+$$$$$$$$$$$",
"$$$$$$$$$$$+@@@+@@+$$$$$$$$$$$",
"$$$$$$$$$$ +@@@++@+ $$$$$$$$$$",
"$$$$$$$$$ .+@@@@@@+. $$$$$$$$$",
"$$$$$$$$$ .++@@@@++. $$$$$$$$$",
"$$$$$$$$$ ..++@@++.. $$$$$$$$$",
"$$$$$$$$$ X..++++..X $$$$$$$$$",
"$$$$$$$$$ XX......XX $$$$$$$$$",
"$$$$$$$$$ XOXXXXXXOO $$$$$$$$$",
"$$$$$$$$$ X#OOXOOOXO $$$$$$$$$",
"$$$$$$$$$ O#OOXOOOXO $$$$$$$$$",
"$$$$$$$$$ OO#OXOOOOO $$$$$$$$$",
"$$$$$$$$   O#OOOXOO   $$$$$$$$",
"$$$$$$$ o  OO#OOXOO  o $$$$$$$",
"$$$$$$ o    O#OOXO    o $$$$$$",
"$$$$$$   $$ OOOOOO $$   $$$$$$",
"$$$$$$  $$$$ OXOO $$$$  $$$$$$",
"$$$$$$  $$$$ OXOO $$$$  $$$$$$",
"$$$$$  $$$$$$ XO $$$$$$  $$$$$",
"$$$$$$$$$$$$$ OO $$$$$$$$$$$$$",
"$$$$$$$$$$$$$$  $$$$$$$$$$$$$$"
};
