/* XPM */
static char *rifle_0[] = {
/* columns rows colors chars-per-pixel */
"128 128 12 1",
"  c black",
". c #230B00",
"X c #2B1700",
"o c #232323",
"O c #2F2F2F",
"+ c gray23",
"@ c #4B4B4B",
"# c gray34",
"$ c #676767",
"% c gray45",
"& c gray50",
"* c None",
/* pixels */
"********************************************************************************************************************************",
"********************************************************************************************************************************",
"********************************************************************************************************************************",
"********************************************************************************************************************************",
"********************************************************************************************************************************",
"********************************************************************************************************************************",
"********************************************************************************************************************************",
"********************************************************************************************************************************",
"********************************************************************************************************************************",
"********************************************************************************************************************************",
"********************************************************************************************************************************",
"********************************************************************************************************************************",
"********************************************************************************************************************************",
"********************************************************************************************************************************",
"********************************************************************************************************************************",
"********************************************************************************************************************************",
"********************************************************************************************************************************",
"********************************************************************************************************************************",
"********************************************************************************************************************************",
"********************************************************************************************************************************",
"********************************************************************************************************************************",
"********************************************************************************************************************************",
"********************************************************************************************************************************",
"********************************************************************************************************************************",
"********************************************************************************************************************************",
"********************************************************************************************************************************",
"********************************************************************************************************************************",
"********************************************************************************************************************************",
"********************************************************************************************************************************",
"********************************************************************************************************************************",
"********************************************************************************************************************************",
"********************************************************************************************************************************",
"********************************************************************************************************************************",
"********************************************************************************************************************************",
"********************************************************************************************************************************",
"********************************************************************************************************************************",
"********************************************************************************************************************************",
"********************************************************************************************************************************",
"********************************************************************************************************************************",
"********************************************************************************************************************************",
"********************************************************************************************************************************",
"********************************************************************************************************************************",
"********************************************************************************************************************************",
"********************************************************************************************************************************",
"********************************************************************************************************************************",
"********************************************************************************************************************************",
"********************************************************************************************************************************",
"********************************************************************************************************************************",
"********************************************************************************************************************************",
"********************************************************************************************************************************",
"********************************************************************************************************************************",
"********************************************************************************************************************************",
"********************************************************************************************************************************",
"********************************************************************************************************************************",
"********************************************************************************************************************************",
"********************************************************************************************************************************",
"********************************************************************************************************************************",
"********************************************************************************************************************************",
"********************************************************************************************************************************",
"********************************************************************************************************************************",
"********************************************************************************************************************************",
"********************************************************************************************************************************",
"********************************************************************************************************************************",
"********************************************************************************************************************************",
"********************************************************************************************************************************",
"********************************************************************************************************************************",
"********************************************************************************************************************************",
"********************************************************************************************************************************",
"********************************************************************************************************************************",
"********************************************************************************************************************************",
"********************************************************************************************************************************",
"********************************************************************************************************************************",
"************************************************************O@%%@O**************************************************************",
"************************************************************o    o**************************************************************",
"************************************************************o    o**************************************************************",
"************************************************************o ** o**************************************************************",
"************************************************************o ** o**************************************************************",
"************************************************************o ** o**************************************************************",
"************************************************************o ** o**************************************************************",
"************************************************************o ** o**************************************************************",
"************************************************************o ** o**************************************************************",
"************************************************************o OO o**************************************************************",
"************************************************************o    o**************************************************************",
"************************************************************o  o o**************************************************************",
"************************************************************o  o o**************************************************************",
"************************************************************o  Ooo**************************************************************",
"************************************************************o  +Oo**************************************************************",
"************************************************************o  @+o**************************************************************",
"************************************************************o  @+o**************************************************************",
"************************************************************o o&@o**************************************************************",
"************************************************************o  o@o**************************************************************",
"************************************************************o  o o**************************************************************",
"************************************************************o  o o**************************************************************",
"************************************************************o  o o**************************************************************",
"***********************************************************o   o  o*************************************************************",
"***********************************************************o   oo o*************************************************************",
"***********************************************************o   oO o*************************************************************",
"***********************************************************o   o# o*************************************************************",
"**********************************************************o    o%  o************************************************************",
"**********************************************************o    o&o o************************************************************",
"**********************************************************o    o%o o************************************************************",
"**********************************************************o    o#O o************************************************************",
"*********************************************************o     o#+o o***********************************************************",
"*********************************************************o     o#+o o***********************************************************",
"*********************************************************o     o#@O o***********************************************************",
"*********************************************************O+#$$$&&%#@O***********************************************************",
"*******************************************************XXoooO+++@$%$@+O*********************************************************",
"******************************************************X      oO+@###$@OO********************************************************",
"*****************************************************X       oO+@#@@#$+OO*******************************************************",
"****************************************************X     oO++++++Oo@$@+oO******************************************************",
"****************************************************X               @#@+oO******************************************************",
"***************************************************X         oO@##@@@#@+OoO*****************************************************",
"***************************************************X              oO@#@+OoO*****************************************************",
"**************************************************X      oO+@@@@@@+Oo#@++OoO****************************************************",
"**************************************************X                  #@@+OoO****************************************************",
"**************************************************X          oO@######@@+OoO****************************************************",
"**************************************************X               ooO+@@+OoO****************************************************",
"*************************************************X      oO+@######@+Oo@@@+OoO***************************************************",
"*************************************************X                   O@#@+OoO***************************************************",
"*************************************************X              ooO+@@@##@OoO***************************************************",
"*************************************************X               oo+@@#$#@+oO***************************************************",
"************************************************X            oooO+@@@##$#@+ooO**************************************************",
"************************************************X                   o@###@+OoO**************************************************",
"************************************************X                      +##@OoO**************************************************",
"************************************************X                        +@OoO**************************************************",
"***********************************************X                           OooO*************************************************",
"***********************************************X                            ooO*************************************************",
"***********************************************X        XXO+@@@@@@++OO.      oo*************************************************"
};
