/* XPM */
static char *knife_0[] = {
/* columns rows colors chars-per-pixel */
"128 128 22 1",
"  c black",
". c #232323",
"X c #2F2F2F",
"o c gray23",
"O c #4B4B4B",
"+ c gray34",
"@ c #5B5B5B",
"# c #676767",
"$ c gray45",
"% c #7B7B7B",
"& c gray50",
"* c gray56",
"= c #9B9B9B",
"- c gray67",
"; c #B7B7B7",
": c #BBBBBB",
"> c #C3C3C3",
", c LightGray",
"< c #DFDFDF",
"1 c #EFEFEF",
"2 c gray100",
"3 c None",
/* pixels */
"33333333333333333333333333333333333333333333333333333333333333333333333333333333333333333333333333333333333333333333333333333333",
"33333333333333333333333333333333333333333333333333333333333333333333333333333333333333333333333333333333333333333333333333333333",
"33333333333333333333333333333333333333333333333333333333333333333333333333333333333333333333333333333333333333333333333333333333",
"33333333333333333333333333333333333333333333333333333333333333333333333333333333333333333333333333333333333333333333333333333333",
"33333333333333333333333333333333333333333333333333333333333333333333333333333333333333333333333333333333333333333333333333333333",
"33333333333333333333333333333333333333333333333333333333333333333333333333333333333333333333333333333333333333333333333333333333",
"33333333333333333333333333333333333333333333333333333333333333333333333333333333333333333333333333333333333333333333333333333333",
"33333333333333333333333333333333333333333333333333333333333333333333333333333333333333333333333333333333333333333333333333333333",
"33333333333333333333333333333333333333333333333333333333333333333333333333333333333333333333333333333333333333333333333333333333",
"33333333333333333333333333333333333333333333333333333333333333333333333333333333333333333333333333333333333333333333333333333333",
"33333333333333333333333333333333333333333333333333333333333333333333333333333333333333333333333333333333333333333333333333333333",
"33333333333333333333333333333333333333333333333333333333333333333333333333333333333333333333333333333333333333333333333333333333",
"33333333333333333333333333333333333333333333333333333333333333333333333333333333333333333333333333333333333333333333333333333333",
"33333333333333333333333333333333333333333333333333333333333333333333333333333333333333333333333333333333333333333333333333333333",
"33333333333333333333333333333333333333333333333333333333333333333333333333333333333333333333333333333333333333333333333333333333",
"33333333333333333333333333333333333333333333333333333333333333333333333333333333333333333333333333333333333333333333333333333333",
"33333333333333333333333333333333333333333333333333333333333333333333333333333333333333333333333333333333333333333333333333333333",
"33333333333333333333333333333333333333333333333333333333333333333333333333333333333333333333333333333333333333333333333333333333",
"33333333333333333333333333333333333333333333333333333333333333333333333333333333333333333333333333333333333333333333333333333333",
"33333333333333333333333333333333333333333333333333333333333333333333333333333333333333333333333333333333333333333333333333333333",
"33333333333333333333333333333333333333333333333333333333333333333333333333333333333333333333333333333333333333333333333333333333",
"33333333333333333333333333333333333333333333333333333333333333333333333333333333333333333333333333333333333333333333333333333333",
"33333333333333333333333333333333333333333333333333333333333333333333333333333333333333333333333333333333333333333333333333333333",
"33333333333333333333333333333333333333333333333333333333333333333333333333333333333333333333333333333333333333333333333333333333",
"33333333333333333333333333333333333333333333333333333333333333333333333333333333333333333333333333333333333333333333333333333333",
"33333333333333333333333333333333333333333333333333333333333333333333333333333333333333333333333333333333333333333333333333333333",
"33333333333333333333333333333333333333333333333333333333333333333333333333333333333333333333333333333333333333333333333333333333",
"33333333333333333333333333333333333333333333333333333333333333333333333333333333333333333333333333333333333333333333333333333333",
"33333333333333333333333333333333333333333333333333333333333333333333333333333333333333333333333333333333333333333333333333333333",
"33333333333333333333333333333333333333333333333333333333333333333333333333333333333333333333333333333333333333333333333333333333",
"33333333333333333333333333333333333333333333333333333333333333333333333333333333333333333333333333333333333333333333333333333333",
"33333333333333333333333333333333333333333333333333333333333333333333333333333333333333333333333333333333333333333333333333333333",
"33333333333333333333333333333333333333333333333333333333333333333333333333333333333333333333333333333333333333333333333333333333",
"33333333333333333333333333333333333333333333333333333333333333333333333333333333333333333333333333333333333333333333333333333333",
"33333333333333333333333333333333333333333333333333333333333333333333333333333333333333333333333333333333333333333333333333333333",
"33333333333333333333333333333333333333333333333333333333333333333333333333333333333333333333333333333333333333333333333333333333",
"33333333333333333333333333333333333333333333333333333333333333333333333333333333333333333333333333333333333333333333333333333333",
"33333333333333333333333333333333333333333333333333333333333333333333333333333333333333333333333333333333333333333333333333333333",
"33333333333333333333333333333333333333333333333333333333333333333333333333333333333333333333333333333333333333333333333333333333",
"33333333333333333333333333333333333333333333333333333333333333333333333333333333333333333333333333333333333333333333333333333333",
"33333333333333333333333333333333333333333333333333333333333333333333333333333333333333333333333333333333333333333333333333333333",
"33333333333333333333333333333333333333333333333333333333333333333333333333333333333333333333333333333333333333333333333333333333",
"33333333333333333333333333333333333333333333333333333333333333333333333333333333333333333333333333333333333333333333333333333333",
"33333333333333333333333333333333333333333333333333333333333333333333333333333333333333333333333333333333333333333333333333333333",
"33333333333333333333333333333333333333333333333333333333333333333333333333333333333333333333333333333333333333333333333333333333",
"33333333333333333333333333333333333333333333333333333333333333333333333333333333333333333333333333333333333333333333333333333333",
"33333333333333333333333333333333333333333333333333333333333333333333333333333333333333333333333333333333333333333333333333333333",
"33333333333333333333333333333333333333333333333333333333333333333333333333333333333333333333333333333333333333333333333333333333",
"33333333333333333333333333333333333333333333333333333333333333333333333333333333333333333333333333333333333333333333333333333333",
"33333333333333333333333333333333333333333333333333333333333333333333333333333333333333333333333333333333333333333333333333333333",
"33333333333333333333333333333333333333333333333333333333333333333333333333333333333333333333333333333333333333333333333333333333",
"33333333333333333333333333333333333333333333333333333333333333333333333333333333333333333333333333333333333333333333333333333333",
"33333333333333333333333333333333333333333333333333333333333333333333333333333333333333333333333333333333333333333333333333333333",
"33333333333333333333333333333333333333333333333333333333333333333333333333333333333333333333333333333333333333333333333333333333",
"33333333333333333333333333333333333333333333333333333333333333333333333333333333333333333333333333333333333333333333333333333333",
"33333333333333333333333333333333333333333333333333333333333333333333333333333333333333333333333333333333333333333333333333333333",
"33333333333333333333333333333333333333333333333333333333333333333333333333333333333333333333333333333333333333333333333333333333",
"33333333333333333333333333333333333333333333333333333333333333333333333333333333333333333333333333333333333333333333333333333333",
"33333333333333333333333333333333333333333333333333333333333333333333333333333333333333333333333333333333333333333333333333333333",
"33333333333333333333333333333333333333333333333333333333333333333333333333333333333333333333333333333333333333333333333333333333",
"33333333333333333333333333333333333333333333333333333333333333333333333333333333333333333333333333333333333333333333333333333333",
"33333333333333333333333333333333333333333333333333333333333333333333333333333333333333333333333333333333333333333333333333333333",
"33333333333333333333333333333333333333333333333333333333333333333333333333333333333333333333333333333333333333333333333333333333",
"33333333333333333333333333333333333333333333333333333333333333333333333333333333333333333333333333333333333333333333333333333333",
"33333333333333333333333333333333333333333333333333333333333333333333333333333333333333333333333333333333333333333333333333333333",
"33333333333333333333333333333333333333333333333333333333333333333333333333333333333333333333333333333333333333333333333333333333",
"33333333333333333333333333333333333333333333333333333333333333333333333333333333333333333333333333333333333333333333333333333333",
"33333333333333333333333333333333333333333333333333333333333333333333333333333333333333333333333333333333333333333333333333333333",
"33333333333333333333333333333333333333333333333333333333333333333333333333333333333333333333333333333333333333333333333333333333",
"33333333333333333333333333333333333333333333333333333333333333333333333333333333333333333333333333333333333333333333333333333333",
"33333333333333333333333333333333333333333333333333333333333333333333333333333333333333333333333333333333333333333333333333333333",
"33333333333333333333333333333333333333333333333333333333333333333333333333333333333333333333333333333333333333333333333333333333",
"33333333333333333333333333333333333333333333333333333333333333333333333333333333333333333333333333333333333333333333333333333333",
"33333333333333333333333333333333333333333333333333333333333333333333333333333333333333333333333333333333333333333333333333333333",
"33333333333333333333333333333333333333333333333333333333333333333333333333333333333333333333333333333333333333333333333333333333",
"33333333333333333333333333333333333333333333333333333333333333333333333333333333333333333333333333333333333333333333333333333333",
"33333333333333333333333333333333333333333333333333333333333333333333333333333333333333333333333333333333333333333333333333333333",
"33333333333333333333333333333333333333333333333333333333333333333333333333333333333333333333333333333333333333333333333333333333",
"33333333333333333333333333333333333333333333333333333333333333333333333333333333333333333333333333333333333333333333333333333333",
"33333333333333333333333333333333333333333333333333333333333333333333333333333333333333333333333333333333333333333333333333333333",
"33333333333333333333333333333333333333333333333333333333333333333333333333333333333333333333333333333333333333333333333333333333",
"33333333333333333333333333333333333333333333333333333333333333333333333333333333333333333333333333333333333333333333333333333333",
"33333333333333333333333333333333333333333333333333333333333333333333333333333333333333333333333333333333333333333333333333333333",
"33333333333333333333333333333333333333333333333333333333333333333333333333333333333333333333333333333333333333333333333333333333",
"33333333333333333333333333333333333333333333333333333333333333333333333333333333333333333333333333333333333333333333333333333333",
"33333333333333333333333333333333333333333333333333333333333333333333333333333333333333333333333333333333333333333333333333333333",
"33333333333333333333333333333333333333333333333333333333333333333333333333333333333333333333333333333333333333333333333333333333",
"33333333333333333333333333333333333333333333333333333333333333333333333333333333333333333333333333333333333333333333333333333333",
"33333333333333333333333333333333333333333333333333333333333333333333333333333333333333333333333333333333333333333333333333333333",
"33333333333333333333333333333333333333333333333333333333333333333333333333333333333333333333333333333333333333333333333333333333",
"33333333333333333333333333333333333333333333333333333333333333333333333333333333333333333333333333333333333333333333333333333333",
"3333333333333333333333333333333333333333333332-333333333333333333333333333333333333333333333333333333333333333333333333333333333",
"33333333333333333333333333333333333333333333322-33333333333333333333333333333333333333333333333333333333333333333333333333333333",
"33333333333333333333333333333333333333333333322<&3333333333333333333333333333333333333333333333333333333333333333333333333333333",
"33333333333333333333333333333333333333333333322<:&333333333333333333333333333333333333333333333333333333333333333333333333333333",
"33333333333333333333333333333333333333333333322<:*$33333333333333333333333333333333333333333333333333333333333333333333333333333",
"33333333333333333333333333333333333333333333322<:=&$3333333333333333333333333333333333333333333333333333333333333333333333333333",
"33333333333333333333333333333333333333333333322<:=&$$333333333333333333333333333333333333333333333333333333333333333333333333333",
"33333333333333333333333333333333333333333333322<:=&$#$33333333333333333333333333333333333333333333333333333333333333333333333333",
"33333333333333333333333333333333333333333333322<:=&$#O$3333333333333333333333333333333333333333333333333333333333333333333333333",
"33333333333333333333333333333333333333333333322<:=&$#+o&333333333333333333333333333333333333333333333333333333333333333333333333",
"33333333333333333333333333333333333333333333322<:=&$#+Oo&33333333333333333333333333333333333333333333333333333333333333333333333",
"33333333333333333333333333333333333333333333322<:=&$#+OoX&3333333333333333333333333333333333333333333333333333333333333333333333",
"33333333333333333333333333333333333333333333322<:-&$#+OoX.&333333333333333333333333333333333333333333333333333333333333333333333",
"33333333333333333333333333333333333333333333322<:-*$##+OoX.&33333333333333333333333333333333333333333333333333333333333333333333",
"33333333333333333333333333333333333333333333322<:-=$$#++OoX.&3333333333333333333333333333333333333333333333333333333333333333333",
"33333333333333333333333333333333333333333333322<:;=&$$#++OoX.&333333333333333333333333333333333333333333333333333333333333333333",
"33333333333333333333333333333333333333333333322<:;=*$$$##+OoX.&33333333333333333333333333333333333333333333333333333333333333333",
"33333333333333333333333333333333333333333333322<:;-*&$$$$#+OoX.&3333333333333333333333333333333333333333333333333333333333333333",
"33333333333333333333333333333333333333333333322<:;-=&$$$$$#+OoX.&333333333333333333333333333333333333333333333333333333333333333",
"33333333333333333333333333333333333333333333322<:;-=*&$$$$$#+OoX.&33333333333333333333333333333333333333333333333333333333333333",
"33333333333333333333333333333333333333333333322<:;-=*&$$$$$$#+OoX.&3333333333333333333333333333333333333333333333333333333333333",
"33333333333333333333333333333333333333333333322<::-=**&$######+OoX.$333333333333333333333333333333333333333333333333333333333333",
"33333333333333333333333333333333333333333333322<::-=*=*&#######+OoX.$33333333333333333333333333333333333333333333333333333333333",
"333333333333333333333333333333333333333333333<2<::-=*=-*&######++OoX.$3333333333333333333333333333333333333333333333333333333333",
"333333333333333333333333333333333333333333333,2<::-=*=;-*#++++++++OoX.$333333333333333333333333333333333333333333333333333333333",
"33333333333333333333333333333333333333333333332<>:-=*=;>-$+++++++++OoX.$33333333333333333333333333333333333333333333333333333333",
"33333333333333333333333333333333333333333333332<,:-=*=;>;*#+OOOOOOOOOoX.$3333333333333333333333333333333333333333333333333333333",
"333333333333333333333333333333333333333333333321,:-=*=;>;=*#OooooooooooX.$333333333333333333333333333333333333333333333333333333",
"3333333333333333333333333333333333333333333333<21:-=*=:>;=-*+oXXXXXXXXXXX.$33333333333333333333333333333333333333333333333333333",
"3333333333333333333333333333333333333333333333321,-=*=:>;=--&+oX...........$3333333333333333333333333333333333333333333333333333",
"3333333333333333333333333333333333333333333333321<;=*=:>;=--=&+oX...........$333333333333333333333333333333333333333333333333333",
"33333333333333333333333333333333333333333333333<2<;=*=:>;=--=*$+oX...........#33333333333333333333333333333333333333333333333333",
"33333333333333333333333333333333333333333333333321,=*=::;=--=*&#+oX...........#3333333333333333333333333333333333333333333333333",
"333333333333333333333333333333333333333333333333<2<-==:>;=-=*&&$#+oX...........#333333333333333333333333333333333333333333333333",
"333333333333333333333333333333333333333333333333322>-->,;=-=&$$$%#+oXXXXXXXXXXoO#33333333333333333333333333333333333333333333333",
"3333333333333333333333333333333333333333333333333<2<>;;<;==*$##$%$#+oXXXXXXXoooOO&3333333333333333333333333333333333333333333333",
"33333333333333333333333333333333333333333333333333<2<><1;==&#++#%$$#+oXXXXXXXXXooO&&@3333333333333333333333333333333333333333333"
};
