/* XPM */
static char *greystone[] = {
/* columns rows colors chars-per-pixel */
"64 64 22 1 ",
"  c gray12",
". c gray23",
"X c #3F3F3F",
"o c gray28",
"O c #4B4B4B",
"+ c gray31",
"@ c #535353",
"# c gray34",
"$ c #5F5F5F",
"% c #676767",
"& c gray42",
"* c gray45",
"= c #7B7B7B",
"- c #838383",
"; c gray56",
": c #9B9B9B",
"> c gray67",
", c #B7B7B7",
"< c gray78",
"1 c LightGray",
"2 c #DFDFDF",
"3 c #EFEFEF",
/* pixels */
" . . . . . . . . . . . . . . . . . . . . . . . . . . . . . . . .",
"@@@+@+@+@++1222121222121222 .->,1<11<1,<>-@ oooooooooo@+@+@+@+@+",
"@@@@@@@@@@o21<1,111<11,11<; .-<,;>-;;;;->+. .&;;-;;;=&%ooo+ooo+o",
";;-;;;-; @+2<<,1,<<,<<,,1;$ .>1>;>;>->;>-@. .;122212,,>;-;;;-;;;",
"1111,>;- @o21>>:>;>>>>:>>=@ .;,;;->>>>-;*+. .-22,<,1222121<111<1",
">>>>:>=* @o3,:>>>>:>;>->>&@ .o>;>>-;:;>&@@. .;1,>;>;>>:;;>;>->;:",
",:::>;=& +o31>->;>;:::;;>;+ .o=;->;>>->*... .-2,;>-:-;;>-;:;>:;:",
",>-,-:$@ .o3<;:;>>:;=;;>;$@ .oo;>>:;;;>&... .;2>>-:=>:=;>->>;=>:",
":>>;:*o+  +<,>:>->;:-:;;>&@  +@o=........  ..*22;>--:*:;>;;=>>*;",
";;-;*@oo .o>3>:>;;;;;;->-@=  .o....... .   ooo<<;;;;:::-;>;>>->;",
"*&**++..  +;1;>;;=;;>->;>&@. .o.       . . +@o<>;>->;-;*&%$$%$%$",
"@@ooo    ..*2>-:===>:;-=;&%. .oo++*=;>:>>:*.++,;&*%$%@@@@o+o+oo+",
"     . . .@o2<;;;::-;>=;>;+. ..*>>123111:&@ @o;&%$@+oo..... . . ",
" . .  . ..+o>1;>-=;>;-:;-*+.  .>,21,->;>-*. ...........         ",
"..........++;<>->:-=;=;>;+@. ..>2,>;;;-;;+. .  .  .  . .........",
"@+...... .@o*<->:;>:>->->+*o  +>3>;->;>->@. .o@@@@ o+oo+ooooooo.",
"::;:;:;::  @o<,:;-::*;;;;&@@  +>3-;>>->;;+. .&>21@o@=::;:::;::::",
"1<11<1,>*. @o;,;>;=;;->;&;&+  +><>>;->;>-@. .>1<> o=<12221222121",
">:;>;>>&*. @o*:>->>->*;&@*@+  +><>;&**&@@@. .1<>- +:11,,>,,,>,,,",
">;:;>-;&*. o@o:;**&*@@*+*@o   .:;*;&....... $2>;; o:2>>:>;>;:-::",
">;;>->>&@. o@o%@@@@ooo.        ;*...        $2>>- +:1>;:-:;:*-;-",
">;>;>-;*+. o@o . .            ..+.     .  . ;2>>; o;<->:>;>;:-::",
";>*=;;>&@. .+@+.        ++++++o;;;>>;;;=@ .%,2>-= +-<>-:;:-:==;;",
";--=;>-%o. .-2221<>>;$.+%=>>,<<2221222<:% .=2<:>* o-,>:;>->;==;;",
";;>>-;;$+. .1<>;::>;:.++=1322<,,<,<,<,<&@ .;2>:;& +&<->;;:;->;>;",
":>-;>-*@.. .2:;:>>;:> @+:2<;>->:->:>:;-%o .;3>->@ +o;*$@@@%%&=;-",
"%$%$%@o... .1>>>->;>$ +o:3>:>;=>>;-;>->@o .-3>>;@ @ ..oooo+oo@@@",
"@+o...     .2->;>>;=$ +o:3->;:>-;=;>;;;++ .;3->;+ @.         ..o",
"       . ++o2>:->;>=$ .o:3;;>-;=;=;-;>;++ .-3>>-@ @....... .    ",
"o%%&;:;-;;o 2>*:;>--%. o;3>;-;=;=;>=;->@o .;3;>>+ @o.o+@+@@@@...",
"%;,21211<>* 2>>-=;>-%. o;2,:;>;>*=;=;>-@. .;1;;>+ +>21,;$@oo+oo@",
"%>1<<,>>:>. 3;:>=;>:&o +=1<>-;*;==>;>--+. .;2>;;@ +2-;,221222;.@",
"%2,>>->;>-* 3:>;>>->&+ .+<2>>:;>->==;>&@. .;1;>;+ +2;->>-;>;--.+",
"%1,:->;>->* 3:-:>;>-%@  @>3>>:;;=;==>-*o. +;1>>-@ o2>>-;>>->;$.o",
"%2>;>;>>=>+ 2>>>;;;>%+ .+;3,>;>-;:->;>$o ..;1:;>+ +<>;>>-;>;>$.o",
"%2>>;;::>-@ 2,=:=>>:$@  +&1,>;=:-;:;;;$.  +;1;>+@ +<>:>;>-;>:@.o",
"%1,;>>;>->@ <2-:>;;;$@  +@,2>->;>;>-;%@. .o=>=+....>>;>:;>;->@..",
"%2,>:;>;>;+ ,2=>-;;>&@  .+;,>;=%$@o+.... ..@.....o *+o@@@@@@@@..",
"%2>;>>->=>@ :1:=>>-;&@  .@o;;$@o.        .o+oo+@@@@            .",
"%1,;-:>;>-@ =2>:>-;>%+   +o. .    . .  . .o@@oo+ooo+oo..........",
"%2,>>-:>;>@ @3;:;;>-%@  .ooo.....+o+.++o+oo@@================*.+",
"%2>;;>->;&@ o3>;-=;>&@   .%=============;;;:>,><,<,<,,<,<,<,<=.+",
"%<,>>;>;>+  +3:;>;;-%@.  .=<,<,<,<<,<,<,<,122333333333331211;% +",
"%1,;>;>>-@ ..3;>=:->%+.   =<<3333322332333332211,,,<,>,<,,<,=@ +",
"%,,>;>-;;+ .o2>>->;;$@.   =<<,<,<,<>,<>,<,,>>::;;>;>-;;>->;>&@..",
"+<-;>-*&*@ .o1-;>->;&@.   %,2,;;-;;;>->>;;:>>>;=:->>:->;>>:;&@ .",
"o,>>:;@@@  .o,>-;>;-*@.   o<2,;;;>;:;:>-;:>>-:;:;;=-::;>->;>&@..",
"o===@@@@@ ...::>-;;&%@.    ,21>>-;;;=;->;:->:=-;>-;>;=*;=:;;*@ .",
"o.   @@@@ ..+=%$%%$%@@.   .>11;->;>-;>;==::->;>;;>-;=;;->;*-&@ .",
"@@@o.    ..............    ;1,>;;>->=;-:=:;:=>-;=;;;->;=;;-=&@ .",
"o+ooo+o.  .+..            .-:&**&**&>;>>-;=-;;=;;>->;;>-;;;:&@ .",
"o=>>>>;;%++@..  .  .  . . .@o.. . . @*&=;===================%+ .",
"o><12122,>>;&$@+...........@oo...... +@@@@@@@@@@@@@@@@@@@@@@@ ..",
"o>1>>;,1222,>>>>>>>:;;-==&%%+@ooo.o.. . . . . . .             ..",
"o>2>>>,>;>,222121212222<1<,>>>>>-+@o.........  . . . . . . ...o+",
"o>2>->==>:;=>->;>;>>->;>>><1211,-.o++oo... ..................o+@",
"o><>>>;>;;;:>-;>=*;>=;-;>->;>>>=% .++>12:=++o@@@oo.ooo.oo.oo+$@@",
"o><>->==:>->>:-=>=;=:->;>;>->>:%@ .oo2>>2221,@@+,22122211<>:=+o@",
"o>-%$%$%$%%$%$%%$%$%$%%$%$%$%$%@@. .o1,>,>,,,$@=2:>>;>->:>;>1: @",
"o;%...............................  +,>,,:$:-%o,>;>->>>->;>->@ @",
"o.                                  +.o.+%$%%$+2:::>>;:>::>;;+ @",
"@+... .  .  .  . .  .  .  .  .  . . .+@..     .@@@@@@@@+@@@@+@ @",
"@@+@ooo++o++.........................+@+@......+@              @",
"................................................................"
};
