/* XPM */
static char * 03F_xpm[] = {
"64 32 38 1",
" 	c None",
".	c #980000",
"+	c #FC0000",
"@	c #EC0000",
"#	c #FC9C9C",
"$	c #FC5454",
"%	c #FC5C5C",
"&	c #FCFC54",
"*	c #A8A8A8",
"=	c #7C7C7C",
"-	c #8C8C8C",
";	c #D0D0D0",
">	c #B4B4B4",
",	c #484848",
"'	c #2C2C2C",
")	c #989898",
"!	c #646464",
"~	c #545454",
"{	c #707070",
"]	c #000000",
"^	c #202020",
"/	c #A86840",
"(	c #F0945C",
"_	c #B47044",
":	c #FCB080",
"<	c #543C1C",
"[	c #FCA470",
"}	c #FCC4A4",
"|	c #FCD8C4",
"1	c #C87C4C",
"2	c #744C28",
"3	c #80502C",
"4	c #E88C58",
"5	c #DC8854",
"6	c #FCB890",
"7	c #FC9C60",
"8	c #A0643C",
"9	c #9C6038",
"                                                                ",
"                                                                ",
"                                                                ",
"                                 .                              ",
"                                .+.                             ",
"                             +  @#@  +                          ",
"                              $%%#%%$                           ",
"                              @##&#$@                           ",
"                             .$&*=*&$@                          ",
"                            .%#*-;-*#%.                         ",
"                             .@=>;>=@.                          ",
"                               ,>;>,                            ",
"                              ==,=,==                           ",
"                             '=)'''!=~                          ",
"                             '=*{={!=,                          ",
"                             '=*)))!='                          ",
"                             ',)***,,]                          ",
"                             '^=,,,]^]/                         ",
"                            ('^!''']^]/_                        ",
"                           (::^!''']^</_                        ",
"                           [}|1]]]]^^2___                       ",
"                           [:||1333_4451_                       ",
"                           ::||||}6:[445_                       ",
"                            4:|||}6:[7451                       ",
"                            84:::::[77451                       ",
"                             77:::[[77451                       ",
"                             91((((()))==                       ",
"                              9///!)**))=!                      ",
"                               ~,!=-**)))=!                     ",
"                                ~!=-)---))!~                    ",
"                                ~!=!=)**))=!,                   ",
"                                 !!!)))**)=!,,                  "};
