/* XPM */
static char * 03FF_xpm[] = {
"64 32 37 1",
" 	c #000000",
".	c #980000",
"+	c #FC0000",
"@	c #EC0000",
"#	c #FC9C9C",
"$	c #FC5454",
"%	c #FC5C5C",
"&	c #FCFC54",
"*	c #A8A8A8",
"=	c #7C7C7C",
"-	c #8C8C8C",
";	c #D0D0D0",
">	c #B4B4B4",
",	c #484848",
"'	c #2C2C2C",
")	c #989898",
"!	c #646464",
"~	c #545454",
"{	c #707070",
"]	c #202020",
"^	c #A86840",
"/	c #F0945C",
"(	c #B47044",
"_	c #FCB080",
":	c #543C1C",
"<	c #FCA470",
"[	c #FCC4A4",
"}	c #FCD8C4",
"|	c #C87C4C",
"1	c #744C28",
"2	c #80502C",
"3	c #E88C58",
"4	c #DC8854",
"5	c #FCB890",
"6	c #FC9C60",
"7	c #A0643C",
"8	c #9C6038",
"                                                                ",
"                                                                ",
"                                                                ",
"                                 .                              ",
"                                .+.                             ",
"                             +  @#@  +                          ",
"                              $%%#%%$                           ",
"                              @##&#$@                           ",
"                             .$&*=*&$@                          ",
"                            .%#*-;-*#%.                         ",
"                             .@=>;>=@.                          ",
"                               ,>;>,                            ",
"                              ==,=,==                           ",
"                             '=)'''!=~                          ",
"                             '=*{={!=,                          ",
"                             '=*)))!='                          ",
"                             ',)***,,                           ",
"                             ']=,,, ] ^                         ",
"                            /']!''' ] ^(                        ",
"                           /__]!''' ]:^(                        ",
"                           <[}|    ]]1(((                       ",
"                           <_}}|222(334|(                       ",
"                           __}}}}[5_<334(                       ",
"                            3_}}}[5_<634|                       ",
"                            73_____<6634|                       ",
"                             66___<<6634|                       ",
"                             8|/////)))==                       ",
"                              8^^^!)**))=!                      ",
"                               ~,!=-**)))=!                     ",
"                                ~!=-)---))!~                    ",
"                                ~!=!=)**))=!,                   ",
"                                 !!!)))**)=!,,                  "};
