/* XPM */
static char * 04F_xpm[] = {
"64 32 31 1",
" 	c None",
".	c #383838",
"+	c #545454",
"@	c #707070",
"#	c #484848",
"$	c #7C7C7C",
"%	c #A8A8A8",
"&	c #646464",
"*	c #8C8C8C",
"=	c #989898",
"-	c #2C2C2C",
";	c #B4B4B4",
">	c #B47044",
",	c #FCA470",
"'	c #000000",
")	c #FCBC9C",
"!	c #202020",
"~	c #BC7848",
"{	c #C87C4C",
"]	c #FCB080",
"^	c #FCD8C4",
"/	c #FCB890",
"(	c #80502C",
"_	c #E88C58",
":	c #DC8854",
"<	c #FCC4A4",
"[	c #FC9C60",
"}	c #D08050",
"|	c #A86840",
"1	c #905C34",
"2	c #744C28",
"                                                                ",
"                                                                ",
"                                .                               ",
"                               +@+                              ",
"                              #$%$#                             ",
"                              #$%$#                             ",
"                              #$%$#                             ",
"                              #$%$#                             ",
"                             $$&*&$$                            ",
"                            &$$&*&$$&                           ",
"                            +$%.#.&$+                           ",
"                            +==---&$#                           ",
"                            +%;@$@&$.                           ",
"                            +%;;;;&#->                          ",
"                           ,+*;***##'>>                         ",
"                          ,)++$###-!'>>                         ",
"                          ,)&+&---'!'~>>                        ",
"                          ,)$+&---''+{~>                        ",
"                          ,]]$+'''!+>{~>                        ",
"                          ,]^/{(((>__:{>                        ",
"                           ]^<<<</],__:>                        ",
"                           _]<<<</],[_:{                        ",
"                            _,,,,,,[[_:{                        ",
"                            __[[[[[[__}{                        ",
"                             :}}}}}}}}}{                        ",
"                             ~~~~~|$$$$$$&                      ",
"                              12++$$===$$$&                     ",
"                                +$$$==$$$$&                     ",
"                                #$$$$@@@&&&&                    ",
"                                 +$$@$*$$$&&&                   ",
"                                 +@@$***$$$&&                   ",
"                                 +@@$***$$$$&&                  "};
