/* XPM */
static char * 06FF_xpm[] = {
"64 32 27 1",
" 	c #000000",
".	c #545454",
"+	c #707070",
"@	c #484848",
"#	c #7C7C7C",
"$	c #A8A8A8",
"%	c #2C2C2C",
"&	c #989898",
"*	c #646464",
"=	c #202020",
"-	c #A86840",
";	c #F0945C",
">	c #B47044",
",	c #FCB080",
"'	c #543C1C",
")	c #FCA470",
"!	c #FCC4A4",
"~	c #FCD8C4",
"{	c #C87C4C",
"]	c #744C28",
"^	c #80502C",
"/	c #E88C58",
"(	c #DC8854",
"_	c #FCB890",
":	c #FC9C60",
"<	c #9C6038",
"[	c #8C8C8C",
"                                                                ",
"                                                                ",
"                                                                ",
"                                                                ",
"                                                                ",
"                                                                ",
"                                                                ",
"                                                                ",
"                                                                ",
"                                                                ",
"                                                                ",
"                                                                ",
"                               .+.                              ",
"                              @#$#@                             ",
"                              @#$#@                             ",
"                             ##@#@##                            ",
"                            %#&%%%*#.                           ",
"                            %#$+#+*#@                           ",
"                            %#$&&&*#%                           ",
"                            %@&$$$@@                            ",
"                            %=#@@@ = -                          ",
"                           ;%=*%%% = ->                         ",
"                          ;,,=*%%% ='->                         ",
"                          )!~{    ==]>>>                        ",
"                          ),~~{^^^>//({>                        ",
"                           ,~~~~!_,)//(>                        ",
"                           /,~~~!_,):/({                        ",
"                            /,,,,,)::/({                        ",
"                            ::,,,))::/({                        ",
"                            </{;;;;;&&&##                       ",
"                             <<---*&$$&&#*                      ",
"                               .@*#[$$&&&#                      "};
