/* XPM */
static char *_fcd9261b49347ecccff11dc255b8f7fgpNJ06lMlnIRSLYh[] = {
/* columns rows colors chars-per-pixel */
"64 64 256 2 ",
"   c black",
".  c #0000A8",
"X  c #00A800",
"o  c #00A8A8",
"O  c #A80000",
"+  c #A800A8",
"@  c #A85400",
"#  c #4C4436",
"$  c gray33",
"%  c #5454FC",
"&  c #524A42",
"*  c #5E5246",
"=  c #736352",
"-  c #685D4C",
";  c #FCFC54",
":  c gray99",
">  c #ECECEC",
",  c gainsboro",
"<  c #D0D0D0",
"1  c #C0C0C0",
"2  c #B4B4B4",
"3  c gray66",
"4  c #989898",
"5  c gray55",
"6  c #7C7C7C",
"7  c gray44",
"8  c #646464",
"9  c gray33",
"0  c #484848",
"q  c gray22",
"w  c #2C2C2C",
"e  c #202020",
"r  c #FC0000",
"t  c #EC0000",
"y  c #E00000",
"u  c #D40000",
"i  c #C80000",
"p  c #BC0000",
"a  c #B00000",
"s  c #A40000",
"d  c #980000",
"f  c #880000",
"g  c #7C0000",
"h  c #700000",
"j  c #640000",
"k  c #580000",
"l  c #4C0000",
"z  c #400000",
"x  c #FCD8D8",
"c  c #FCB8B8",
"v  c #FC9C9C",
"b  c #FC7C7C",
"n  c #FC5C5C",
"m  c #FC4040",
"M  c #FC2020",
"N  c #FC0000",
"B  c #FCA85C",
"V  c #FC9840",
"C  c #FC8820",
"Z  c #FC7800",
"A  c #E46C00",
"S  c #CC6000",
"D  c #B45400",
"F  c #9C4C00",
"G  c #FCFCD8",
"H  c #FCFCB8",
"J  c #FCFC9C",
"K  c #FCFC7C",
"L  c #FCF85C",
"P  c #FCF440",
"I  c #FCF420",
"U  c #FCF400",
"Y  c #E4D800",
"T  c #CCC400",
"R  c #B4AC00",
"E  c #9C9C00",
"W  c #848400",
"Q  c #706C00",
"!  c #585400",
"~  c #404000",
"^  c #849C7B",
"/  c #738C6B",
"(  c #6B7B63",
")  c #637352",
"_  c #5A6B52",
"`  c #525A4A",
"'  c #4A5242",
"]  c #425239",
"[  c #394A39",
"{  c #313931",
"}  c #313929",
"|  c #293129",
" . c #293121",
".. c #212921",
"X. c #182118",
"o. c #181818",
"O. c #00FC00",
"+. c #00EC00",
"@. c #00E000",
"#. c #00D400",
"$. c #04C800",
"%. c #04BC00",
"&. c #04B000",
"*. c #04A400",
"=. c #049800",
"-. c #048800",
";. c #047C00",
":. c #047000",
">. c #046400",
",. c #045800",
"<. c #044C00",
"1. c #044000",
"2. c #C8BFB2",
"3. c #A89A85",
"4. c #9A8C77",
"5. c #7CFCF8",
"6. c #5CFCFC",
"7. c #40FCFC",
"8. c #20FCFC",
"9. c #00FCFC",
"0. c #00E4E4",
"q. c #00CCCC",
"w. c #00B4B4",
"e. c #009C9C",
"r. c #008484",
"t. c #007070",
"y. c #005858",
"u. c #004040",
"i. c #94846B",
"p. c #8C7B67",
"a. c #847B63",
"s. c #81735D",
"d. c #7B6B5A",
"f. c #007CCC",
"g. c #006CB4",
"h. c #005C9C",
"j. c #736B5A",
"k. c #736B52",
"l. c #9C9CFC",
"z. c #7C80FC",
"x. c #5C60FC",
"c. c #4040FC",
"v. c #2024FC",
"b. c #0004FC",
"n. c #0000FC",
"m. c #0000EC",
"M. c #0000E0",
"N. c #0000D4",
"B. c #0000C8",
"V. c #0000BC",
"C. c #0000B0",
"Z. c #0000A4",
"A. c #000098",
"S. c #000088",
"D. c #00007C",
"F. c #000070",
"G. c #000064",
"H. c #000058",
"J. c #00004C",
"K. c #000040",
"L. c #282828",
"P. c #FCE034",
"I. c #FCD424",
"U. c #FCCC18",
"Y. c #FCC008",
"T. c #FCB400",
"R. c #B420FC",
"E. c #A800FC",
"W. c #9800E4",
"Q. c #8000CC",
"!. c #7400B4",
"~. c #60009C",
"^. c #500084",
"/. c #440070",
"(. c #340058",
"). c #280040",
"_. c #FCD8FC",
"`. c #FCB8FC",
"'. c #FC9CFC",
"]. c #FC7CFC",
"[. c #FC5CFC",
"{. c #FC40FC",
"}. c #FC20FC",
"|. c #FC00FC",
" X c #E000E4",
".X c #C800CC",
"XX c #B400B4",
"oX c #9C009C",
"OX c #840084",
"+X c #6C0070",
"@X c #580058",
"#X c #400040",
"$X c #FCE8DC",
"%X c #FCE0D0",
"&X c #FCD8C4",
"*X c #FCD4BC",
"=X c #FCCCB0",
"-X c #FCC4A4",
";X c #FCBC9C",
":X c #FCB890",
">X c #FCB080",
",X c #FCA470",
"<X c #FC9C60",
"1X c #F0945C",
"2X c #E88C58",
"3X c #DC8854",
"4X c #D08050",
"5X c #C87C4C",
"6X c #BC7848",
"7X c #B47044",
"8X c #A86840",
"9X c #A0643C",
"0X c #9C6038",
"qX c #905C34",
"wX c #885830",
"eX c #80502C",
"rX c #744C28",
"tX c #6C4824",
"yX c #5C4020",
"uX c #543C1C",
"iX c #483818",
"pX c #403018",
"aX c #382C14",
"sX c #28200C",
"dX c #600064",
"fX c #006464",
"gX c #006060",
"hX c #00001C",
"jX c #00002C",
"kX c #302410",
"lX c #480048",
"zX c #500050",
"xX c #000034",
"cX c gray11",
"vX c #4C4C4C",
"bX c gray36",
"nX c gray25",
"mX c gray19",
"MX c #343434",
"NX c #2E2B22",
"BX c #B8E8E8",
"VX c #9CDCDC",
"CX c #74C8C8",
"ZX c #48C0C0",
"AX c #20B4B4",
"SX c #20B0B0",
"DX c #00A4A4",
"FX c #009898",
"GX c #008C8C",
"HX c #008484",
"JX c #007C7C",
"KX c #007878",
"LX c #007474",
"PX c #007070",
"IX c #006C6C",
"UX c #980088",
/* pixels */
"$ $ $ $ $ $ $ $ $ $ $ $ $ $ $ $ $ $ $ $ $ $ $ $ $ $ $ $ $ $ $ $ $ $ $ $ $ $ $ $ $ $ $ $ $ $ $ $ $ $ $ $ $ $ $ $ $ $ $ $ $ $ $ o.",
"$ nXnXnXnXnXnXMXMXMXMXMXMXMXnXnXq q q nXq q q q q q q MXmXL.L.L.L.w MXq q q MXq q mXq L.e e e e e cXe cXe cXcXcXe e e L.e e e o.",
"$ nXMXnX6 $ MXMXMXMX6 $ mXMXMXnXnXq q nXnXq q mXmXmXmXw L.e e e e L.mXq q q q q q mXmXL.e e e e e e e e e 6 $ e e e e 6 $ e mXo.",
"$ MXnXMX$ L.MXMXMXMX$ L.MXMXMXnXq q q q q mXmXmXL.L.L.L.e e e e e L.w mXmXmXMXq q nXq mXL.e e e e e e e e $ L.e e e e $ L.e e o.",
"$ q nXMXMXmXnXnXMXMXMXMXMXMXMXq q q mXmXmXmXL.L.L.L.L.L.e e e e L.L.L.w mXmXmXmXq q q q q q L.L.L.e e e e e e e e e cXcXe e e o.",
"$ nXnXMXMXnXnXnXnXnXnXMXMXMXnXnXmXmXmXmXmXmXL.L.L.L.L.L.e e e e w L.e w mXmXmXmXq mXq q q q mXmXL.L.L.L.L.e e e e e e cXe e e o.",
"$ q nXMXMXnXq q q q nXnXnXnXq q mXmXmXmXmXmXmXL.L.L.L.L.L.e e e e L.e L.w mXMXq q nXnXnXq q q mXmXL.L.L.L.L.L.L.e e e e e e e o.",
"$ q q MX6 $ q q cXcXcXcXcXcXcXcXcXcXcXcXcXcXcXcXcXcXcXcXcXcXcXcXcXcXcXcXcXcXcXcXcXcXcXcXcXcXcXcXcXcXcXcXcXcXcXcXmXe e 6 $ L.e o.",
"$ nXnXnX$ L.q q cXq nXnXnXnXnXmXL.mXq q mXmXq q q mXmXmXmXmXL.L.L.L.L.L.mXmXq nXnXnXnXnXnXq q mXmXL.e e L.L.mXq bXmXL.$ L.e L.o.",
"$ q nXq q q q q cXnXMX6 $ nXnXq q q 6 $ q q nXMXMXq 6 $ q mXL.L.L.L.L.6 $ mXq nXq q q q 6 $ q q mXmXe e 6 $ mXnX8 q q q L.mXL.o.",
"$ nXnXq nXq q q cXMXMX$ L.nXnXq q q $ L.nXMXnXnXnXnX$ L.q mXmXL.L.L.L.$ L.mXq q mXmXmXmX$ L.q mXmXmXL.L.$ L.mXq 8 nXnXq e e e o.",
"$ nXnXnXq nXq nXcXMXMXMXL.MXnXnXq mXq nXnXnXnXq q q mXq q mXmXmXL.L.mXmXmXmXmXmXmXmXmXmXmXq q mXmXmXmXmXmXmXmXq 8 nXnXq mXe e o.",
"$ nXnXnXq nXnXnXcXMXMXnXMXMXe L.e e e e L.e e e e e e cXcXcXcXcXcXcXcXcXcXcXcXcXcXcXcXcXcXcXcXcXcXcXL.e mXmXmXmX8 nXnXq mXL.L.o.",
"$ nXnXnXnXnXnXMXcXMXnXnXnXnXe nXnXq q MXmXmXmXmXmXmXmXmXmXw w w w w mXMXq q MXMXmXmXmXw w w w mXmXMXbXq mXmXmXmX8 q q q mXL.e o.",
"$ nXnXnXnXnXMXMXcXMXnXnXnXnXe nXnXnXq MXmXmXmXmXmXMXMXMXMXmXmXw mXw mXMXq MXmXmXw w w w w w w w w mX8 q q mXmXL.8 mXmXmXL.e e o.",
"$ nXnXnXnXnXMXMXcXnXnXnXnXnXe MXnXnXq MXmXmXmXmXmXmXmXMXMXMXq MXMXMXq q q q mXw w w w w w L.L.w w w 8 q q mXmXmX8 L.L.L.L.e cXo.",
"$ nXnXnXnXnXnXMXcXnXnXnXnXnXe mXMXnXnXq MXmXmXmXmXmXmXMXMXq q q q q q q q q MXmXw w w w L.L.L.L.L.L.8 mXmXmXL.L.8 L.L.L.L.e cXo.",
"$ MXnXnXnXnXnXMXcXnXnXnXnXMXe mXmXMXnXq q MXMXmXmXmXmXMXMXq q q q q q q q q q mXmXw w w w w L.L.L.L.8 mXmXmXmXe 8 L.L.L.e e e o.",
"$ MXMXMXnXnXnXMXcXnXnXnXnXMXe mXmXMXnXnXq q q MXmXmXmXmXMXq q q q q q q q q q MXmXmXw w w w w w L.L.8 mXmXmXmXL.8 L.L.L.e e e o.",
"$ MXnXMXMXnXnXnXcXnXnX6 $ MXe L.mXmXMXnXnXq q q MXmXmXMXMXMXq q q q q q q q q q MXmXmXmXw w w w L.L.8 mX6 $ mXL.8 L.L.L.L.e cXo.",
"$ nXMXnXMXnXnXq cXnXnX$ L.mXe L.L.mXmXMXnXnXq 6 7 bXbXbX$ $ $ 0 0 0 nXnXnXnXnXw w w mXmXmXw w w L.L.8 mX$ L.mXmX8 mXmXmXL.e cXo.",
"$ nXMXMXMXnXq q cXMXMXMXMXmXe L.L.L.mXmXMXnXnX5 4 3 3 4 4 4 4 5 6 6 6 7 7 bXbXbXbX4 q MXmXmXw w L.L.8 L.mXmXmXmX8 mXmXmXL.e cXo.",
"$ nXMXMXnXq mXq cXnXMXnXMXMXe mXmXmXmXmXMXnXnX5 4 5 8 3 4 4 4 5 6 6 6 6 7 7 5 vXbX4 q q MXmXw w L.L.8 L.L.mXq q 8 mXmXL.e e cXo.",
"$ nXMXMXnXq q q cXnXMXnXMXMXe MXmXmXmXmXmXMXnX5 4 8 w 3 4 4 4 4 5 5 6 6 7 7 vXw bX3 q q q mXmXw w L.8 L.L.mXq q 8 q mXL.e cXcXo.",
"$ MXMXMXnXnXnXnXcXq MXMXMXnXe MXmXmXmXmXmXMXMX5 4 3 3 3 4 4 4 4 5 5 6 6 7 7 bXbXbX3 q q q MXmXw w w 8 L.mXmXmXq 8 q mXL.e cXcXo.",
"$ MXMXnXnXMXMXMXcXMXMXMXMXnXe MXmXmXmXmXmXmXMX5 4 3 T T w T T w T w T T w T T bXbX3 q q e e e L.mXw 8 mXmXmXq q 8 q mXL.e e cXo.",
"$ nXnXnXnXMXMXMXcXMXnXmXmXMXe mXmXmXmXmXmXmXmX6 4 3 E E e E E e E e E E e E E 7 7 3 q q e j j vXMXmX8 mXq q q q 8 mXmXL.L.e cXo.",
"$ nXMXnXnXnXMXMXcXMXnX6 $ mXe mXmXmXmXmXMXMXmX6 4 3 3 0 5 7 0 4 4 4 0 5 7 0 7 7 7 3 MXMXe h h vXMXMX8 q 6 $ q q 8 mXmXmXL.e cXo.",
"$ q q q 6 $ nXMXcXMXMX$ L.mXe L.L.mXmXmXMXMXMX6 5 4 3 0 7 8 0 3 4 4 0 7 8 0 6 7 7 3 mXMXe g g vXq MX8 q $ L.q q 8 mXL.6 $ e cXo.",
"$ mXmXmX$ L.nXMXcXMXMXMXmXL.e L.mXmXmXMXMXMXnX6 5 4 3 0 q q 0 3 3 3 0 q q 0 6 6 6 2 mXmXe f f vXq q 8 q q q q q 8 mXL.$ L.e cXo.",
"$ L.mXmXmXq nXMXcXMXmXMXmXL.e mXmXmXmXMXMXMXnX7 5 4 3 0 w w 0 3 3 3 0 w w 0 6 6 6 2 mXmXe d d vXq q 8 mXmXmXq q 8 mXmXL.L.e cXo.",
"$ L.mXmXmXq nXnXcXmXmXmXL.L.e mXmXmXMXMXMXnXnX7 5 5 4 0 cXcX0 3 3 3 0 cXcX0 5 6 6 2 mXmXe s s vXq q 8 mXmXmXmXq 8 mXmXL.L.e e o.",
"$ mXmXmXmXnXq nXcXmXmXmXmXL.e mXmXMXMXMXMXnXnXbX5 5 4 0     0 3 3 3 0     0 5 6 6 2 w w e a a vXq MX8 L.L.mXmXmX8 mXL.L.L.e e o.",
"$ mXmXmXq nXnXnXcXMXmXmXmXL.e mXmXMXMXMXMXnXnXbX5 5 4 0     0 3 3 3 0     0 4 5 5 2 w w e s s vXMXmX8 mXmXmXq mX8 L.L.L.e e e o.",
"$ q q q q nXnXnXcXMXMXMXMXL.e mXmXmXMXMXMXnXnXbX5 5 5 0     0 3 3 3 0     0 4 5 5 1 w L.e d d vXmXmX8 mXmXq q q 8 L.L.L.e e e o.",
"$ nXq q q q q q cXMXMX6 $ mXe L.L.mXmXMXMXnXnX$ 7 6 5 0     0 3 3 3 0     0 4 5 5 1 w L.e f f vXmXmX8 mX6 $ q q 8 mXmXL.e e cXo.",
"$ q mXmX6 $ q q cXMXMX$ L.mXe L.L.mXmXmXMXMXnX$ 7 6 5 0     0 3 3 3 0     0 4 4 4 1 mXw e g g vXMXMX8 q $ L.nXq 8 q mX6 $ e cXo.",
"$ mXmXmX$ L.mXq cXMXMXmXmXmXe L.L.L.mXmXmXMXnX$ 7 6 6 0     0 3 3 3 0     0 4 4 4 < mXw e h h vXq q 8 nXnXnXnXq 8 mXmX$ L.e e o.",
"$ mXmXmXmXmXmXq cXnXMXMXmXmXe L.L.L.mXmXmXmXMX0 7 7 6 0     0 4 4 3 0     0 3 4 4 < mXw e j j vXq q 8 q q nXq q 8 mXL.L.e e e o.",
"$ mXmXmXmXmXmXmXcXq nXnXMXmXe L.L.L.mXmXmXmXMX0 7 7 6 0 0 0 0 4 4 3 0 0 0 0 3 3 3 < mXw L.vXvXvXq q 8 q mXq q mX8 L.L.L.e e L.o.",
"$ mXq mXmXmXmXmXcXq q nXnXMXe mXmXmXmXmXmXmXMX0 7 7 7 6 6 5 5 4 4 4 3 3 3 3 3 3 3 < w w w w mXMXq q 8 q mXmXmXmX8 L.L.L.L.L.L.o.",
"$ mXmXmXmXmXmXmXcXq q nXnXMXe mXmXmXmXMXMXMXMX0 $ 5 0 6 6 5 5 5 5 4 3 3 3 3 5 8 3 , w w L.w mXMXMXq 8 q mXmXmXL.8 L.L.e L.L.L.o.",
"$ mXmXq mXmXmXmXcXq q nXnXMXe MXMXmXMXMXMXMXMX0 $ 0 w 6 6 5 5 5 5 4 3 3 3 3 8 w 3 , w w w w mXMXMXq 8 q mXmXmXL.8 L.L.L.L.mXL.o.",
"$ mXmXq mXmXmXq cXnXnX6 $ nXe nXnXMXMXnXnXnXMXnX$ bXbX7 6 6 5 5 5 5 4 3 3 3 3 3 3 , w w w mXmXMXq q 8 q 6 $ mXL.8 L.L.L.mXmXmXo.",
"$ q mXq q mXmXq cXnXnX$ L.nXcXnXnXnXnXnXnXnXnXw 5 5 4 4 4 3 3 3 3 3 2 2 2 1 < < < , w w mXmXMXq q q 8 nX$ L.mXmX8 L.L.mXmXq mXe ",
"$ nXq q nXmXmXq cXnXMXMXnXnXcXnXnXnXnXnXnXnXnXMXMXMXnXnXnXnXq q MXMXMXMXMXmXw w L.L.w w mXMXMXq q q 8 q q q mXmX8 mXmXmXmXq mXe ",
"$ MXnXq mXq mXq cXnXMXMXnXq e nXnXnXnXnXnXnXnXnXMXMXMXnXnXnXnXq q MXMXmXmXw w L.L.L.w w mXmXMXq q q 8 q q mXmXmX8 mXmXmXq q mXe ",
"$ mXMXnXq nXq mXcXMXnXnXnXq cXq nXnXnXMXMXnXnXnXMXMXMXMXMXnXnXnXq MXmXw w L.L.L.L.L.w w mXmXmXMXMXq 8 mXmXmXL.e 8 mXq q q q nXe ",
"$ L.mXMXnXq q mXcXq nXq q q e q nXnXnXMXMXMXMXMXMXMXmXmXmXMXnXnXq MXmXw L.L.L.L.L.w w w w w mXmXw mX8 L.mXmXmXq 8 q q q q q mXe ",
"$ MXmXmXMXnXq q cXnXnXq q q L.q q nXnXMXmXmXMXMXMXmXmXmXmXmXMXnXnXq mXw L.L.L.L.w w w w w w w w w L.8 mXmXmXq q 8 q q q mXmXq e ",
"$ MXmXmXmXMXMXq cXnXMXMXnXq L.q q nXnXMXmXmXmXmXMXmXmXmXmXmXmXMXnXq mXw w L.L.w w w w w w w w L.L.e 8 L.mXmXmXmX8 mXmXmXmXmXq e ",
"$ mXmXmXmXmXmXMXcXmXmXMXnXnXL.bX8 8 8 8 8 8 8 8 8 8 8 8 8 8 8 8 8 8 8 8 8 8 8 8 8 8 8 8 8 8 8 8 8 8 7 e L.L.L.L.8 L.mXq q q q e ",
"$ mXmXmXmXmXmXL.cXL.L.mXMXnXnXnXnXnXnXMXMXmXL.L.L.L.L.mXmXMXMXMXMXMXMXnXnXq q q mXmXmXmXmXmXmXL.L.L.L.e L.L.L.L.8 mXq nXnXnXq e ",
"$ mXmXmXL.L.L.L.cXL.L.6 $ MXnXnXnXnXnX6 $ mXL.L.L.L.L.6 $ MXMXMXMXMXnX6 $ q q q mXmXmXmX6 $ L.L.L.L.L.e 6 $ L.L.8 mXq nXMXnXnXe ",
"$ MXMXL.L.L.L.L.cXL.L.$ L.mXMXnXnXMXMX$ L.mXL.L.L.mXmX$ L.mXMXMXMXnXnX$ L.q q mXmXmXmXL.$ L.L.mXL.L.L.mX$ L.L.e 8 L.mXq nXnXnXe ",
"$ q nXmX6 $ L.L.cXL.L.L.L.mXmXMXMXMXMXmXmXmXL.L.mXmXmXmXmXmXmXMXnXq q q mXmXmXL.L.L.L.L.L.L.L.L.L.L.L.L.L.L.e e 8 e L.6 $ nXnXe ",
"$ mXnXmX$ L.L.L.nXbX8 8 8 8 8 8 8 8 8 8 8 8 8 8 8 8 8 8 8 8 8 8 8 8 8 8 8 8 8 8 8 8 8 8 8 8 8 8 8 8 8 8 8 8 8 8 7 e e $ L.nXnXe ",
"$ q nXmXmXL.L.L.L.L.L.L.mXmXMXMXq nXMXmXmXMXMXmXmXMXMXMXMXMXq q q mXmXmXmXmXL.L.L.L.L.L.mXL.mXL.mXL.L.L.L.L.e e e e L.q nXnXnXe ",
"$ nXnXMXMXmXL.L.L.L.L.L.mXmXMXMXMXnXnXnXnXMXMXMXMXMXMXMXnXnXq q q q mXmXq q mXL.mXmXL.L.L.L.L.mXmXmXmXL.L.L.e e e L.mXq nXq q e ",
"$ MXMXmXL.L.L.L.L.L.L.L.L.mXMXmXmXMXnXMXMXq MXq MXnXnXnXnXnXnXnXq q mXq q q q mXmXmXmXmXL.L.L.mXmXmXmXmXL.L.L.e L.L.mXq q q mXe ",
"$ mXmXL.6 $ mXL.mXMX6 $ mXmXq MXmXmXMXmXMXMXnXnXMXmXMXMXMXmXMXMXnXnXnXnXq mXq q mXmXmXmXL.L.L.mXmXmXmXmXmX6 $ e L.mXmX6 $ mXq e ",
"$ MXmXL.$ L.mXmXnXnX$ L.mXMXmXMXmXMXnXMXnXnXmXMXmXmXmXmXL.L.mXMXMXnXnXnXq q q nXmXq mXmXmXmXL.L.L.mXmXmXL.$ L.L.L.mXq $ L.q nXe ",
"$ MXmXmXL.mXMXMXnXmXmXnXMXL.L.L.MXMXnXnXMXL.mXmXmXL.L.L.L.mXmXmXnXnXnXq q q q q q e L.mXmXmXmXL.L.mXmXL.L.e L.e L.mXq q q q q e ",
"mXe e e e e e e e e e e e e e e e e e e e e e e e e e e e e e e e e e e e e e e e e e e e e e e e e e e e e e e e e e e e e e e "
};
