/* XPM */
static char *_9482_1042d877d6868b57d7b4173ee2f900e153c38ecbf6b2447465f92f74bab0266f[] = {
/* columns rows colors chars-per-pixel */
"64 64 256 2 ",
"   c black",
".  c #0000A8",
"X  c #00A800",
"o  c #00A8A8",
"O  c #A80000",
"+  c #A800A8",
"@  c #A85400",
"#  c gray66",
"$  c gray33",
"%  c #5454FC",
"&  c #54FC54",
"*  c #54FCFC",
"=  c #FC5454",
"-  c #FC54FC",
";  c #FCFC54",
":  c gray99",
">  c #ECECEC",
",  c gainsboro",
"<  c #D0D0D0",
"1  c #C0C0C0",
"2  c #B4B4B4",
"3  c gray66",
"4  c #989898",
"5  c gray55",
"6  c #7C7C7C",
"7  c gray44",
"8  c #646464",
"9  c gray33",
"0  c #484848",
"q  c gray22",
"w  c #2C2C2C",
"e  c #202020",
"r  c #FC0000",
"t  c #EC0000",
"y  c #E00000",
"u  c #D40000",
"i  c #C80000",
"p  c #BC0000",
"a  c #B00000",
"s  c #A40000",
"d  c #980000",
"f  c #880000",
"g  c #7C0000",
"h  c #700000",
"j  c #640000",
"k  c #580000",
"l  c #4C0000",
"z  c #400000",
"x  c #FCD8D8",
"c  c #FCB8B8",
"v  c #FC9C9C",
"b  c #FC7C7C",
"n  c #FC5C5C",
"m  c #FC4040",
"M  c #FC2020",
"N  c #FC0000",
"B  c #FCA85C",
"V  c #FC9840",
"C  c #FC8820",
"Z  c #FC7800",
"A  c #E46C00",
"S  c #CC6000",
"D  c #B45400",
"F  c #9C4C00",
"G  c #FCFCD8",
"H  c #FCFCB8",
"J  c #FCFC9C",
"K  c #FCFC7C",
"L  c #FCF85C",
"P  c #FCF440",
"I  c #FCF420",
"U  c #FCF400",
"Y  c #E4D800",
"T  c #CCC400",
"R  c #B4AC00",
"E  c #9C9C00",
"W  c #848400",
"Q  c #706C00",
"!  c #585400",
"~  c #404000",
"^  c #D0FC5C",
"/  c #C4FC40",
"(  c #B4FC20",
")  c #A0FC00",
"_  c #90E400",
"`  c #80CC00",
"'  c #74B400",
"]  c #609C00",
"[  c #D8FCD8",
"{  c #BCFCB8",
"}  c #9CFC9C",
"|  c #80FC7C",
" . c #60FC5C",
".. c #40FC40",
"X. c #20FC20",
"o. c #00FC00",
"O. c #00FC00",
"+. c #00EC00",
"@. c #00E000",
"#. c #00D400",
"$. c #04C800",
"%. c #04BC00",
"&. c #04B000",
"*. c #04A400",
"=. c #049800",
"-. c #048800",
";. c #047C00",
":. c #047000",
">. c #046400",
",. c #045800",
"<. c #044C00",
"1. c #044000",
"2. c #D8FCFC",
"3. c #B8FCFC",
"4. c #9CFCFC",
"5. c #7CFCF8",
"6. c #5CFCFC",
"7. c #40FCFC",
"8. c #20FCFC",
"9. c #00FCFC",
"0. c #00E4E4",
"q. c #00CCCC",
"w. c #00B4B4",
"e. c #009C9C",
"r. c #008484",
"t. c #007070",
"y. c #005858",
"u. c #004040",
"i. c #5CBCFC",
"p. c #40B0FC",
"a. c #20A8FC",
"s. c #009CFC",
"d. c #008CE4",
"f. c #007CCC",
"g. c #006CB4",
"h. c #005C9C",
"j. c #D8D8FC",
"k. c #B8BCFC",
"l. c #9C9CFC",
"z. c #7C80FC",
"x. c #5C60FC",
"c. c #4040FC",
"v. c #2024FC",
"b. c #0004FC",
"n. c #0000FC",
"m. c #0000EC",
"M. c #0000E0",
"N. c #0000D4",
"B. c #0000C8",
"V. c #0000BC",
"C. c #0000B0",
"Z. c #0000A4",
"A. c #000098",
"S. c #000088",
"D. c #00007C",
"F. c #000070",
"G. c #000064",
"H. c #000058",
"J. c #00004C",
"K. c #000040",
"L. c #282828",
"P. c #FCE034",
"I. c #FCD424",
"U. c #FCCC18",
"Y. c #FCC008",
"T. c #FCB400",
"R. c #B420FC",
"E. c #A800FC",
"W. c #9800E4",
"Q. c #8000CC",
"!. c #7400B4",
"~. c #60009C",
"^. c #500084",
"/. c #440070",
"(. c #340058",
"). c #280040",
"_. c #FCD8FC",
"`. c #FCB8FC",
"'. c #FC9CFC",
"]. c #FC7CFC",
"[. c #FC5CFC",
"{. c #FC40FC",
"}. c #FC20FC",
"|. c #FC00FC",
" X c #E000E4",
".X c #C800CC",
"XX c #B400B4",
"oX c #9C009C",
"OX c #840084",
"+X c #6C0070",
"@X c #580058",
"#X c #400040",
"$X c #FCE8DC",
"%X c #FCE0D0",
"&X c #FCD8C4",
"*X c #FCD4BC",
"=X c #FCCCB0",
"-X c #FCC4A4",
";X c #FCBC9C",
":X c #FCB890",
">X c #FCB080",
",X c #FCA470",
"<X c #FC9C60",
"1X c #F0945C",
"2X c #E88C58",
"3X c #DC8854",
"4X c #D08050",
"5X c #C87C4C",
"6X c #BC7848",
"7X c #B47044",
"8X c #A86840",
"9X c #A0643C",
"0X c #9C6038",
"qX c #905C34",
"wX c #885830",
"eX c #80502C",
"rX c #744C28",
"tX c #6C4824",
"yX c #5C4020",
"uX c #543C1C",
"iX c #483818",
"pX c #403018",
"aX c #382C14",
"sX c #28200C",
"dX c #600064",
"fX c #006464",
"gX c #006060",
"hX c #00001C",
"jX c #00002C",
"kX c #302410",
"lX c #480048",
"zX c #500050",
"xX c #000034",
"cX c gray11",
"vX c #4C4C4C",
"bX c gray36",
"nX c gray25",
"mX c gray19",
"MX c #343434",
"NX c #D8F4F4",
"BX c #B8E8E8",
"VX c #9CDCDC",
"CX c #74C8C8",
"ZX c #48C0C0",
"AX c #20B4B4",
"SX c #20B0B0",
"DX c #00A4A4",
"FX c #009898",
"GX c #008C8C",
"HX c #008484",
"JX c #007C7C",
"KX c #007878",
"LX c #007474",
"PX c #007070",
"IX c #006C6C",
"UX c #980088",
/* pixels */
"L.L.L.L.L.L.L.L.L.L.L.L.L.L.L.L.L.L.L.L.L.L.L.L.L.L.L.L.L.L.L.L.L.L.L.L.L.L.L.L.L.L.L.L.L.L.L.L.L.L.L.L.L.L.L.L.L.L.L.L.L.L.L.L.",
"$ $ $ $ $ $ $ $ $ $ 0 6 T T T T T 5 5 5 4 4 5 R R R 8 e q 8 5 4 5 5 5 6 T T T 6 $ $ nXe 0 0 0 0 0 0 0 0 0 0 $ $ $ $ $ $ $ $ $ $ ",
"$ $ $ $ $ $ $ $ $ $ 0 4 # R R R R 6 # T T 2 2 4 T T 6 e q 6 # # 4 T 6 T E E E Q bX$ nXe q 7 E E E E 8 7 7 7 6 bX$ $ 6 $ $ $ bX8 ",
"5 5 6 6 6 6 6 8 e $ 0 # 2 R R R Q 6 T T E # 2 4 W R 6 e q 5 # # 4 5 T 6 Q W Q 6 bX$ q e q E T Y E Q 6 4 4 T T T 6 6 T T 6 7 6 5 ",
"# 4 R 5 5 5 5 8 e $ 0 # # E E W Q 6 T E 6 4 4 5 6 E vXe q 7 4 4 5 5 5 5 6 W Q $ $ 0 q e q E Y R Q 7 5 4 6 T Y Y 6 6 T T W 6 5 # ",
"# 4 R R 6 6 6 8 e $ 0 # # E W Q 6 5 5 4 5 E 5 5 6 W vXe q 0 6 T E 5 5 5 6 ! bXbX$ 0 q e q E Y Q 6 6 5 Y T 6 E E 6 6 E W Q 7 6 4 ",
"# 4 Q 7 6 6 7 $ e 0 0 # # E Q Q 6 5 4 4 5 E 5 5 6 7 vXe q 0 7 E W R 5 5 6 7 8 bX0 q mXe q W E Q 7 6 T T T 6 Q E 6 8 8 8 bX8 R 6 ",
"# 4 5 6 5 6 8 $ e q 0 # 2 4 6 6 5 4 4 4 5 W 5 5 5 7 $ e q 0 8 7 6 6 6 6 7 8 8 $ nXq mXL.q W Q 7 6 6 5 T 6 6 Q Q bX7 7 7 7 7 W 7 ",
"4 4 5 5 6 8 $ nXe L.0 # 1 # 5 5 5 T 5 4 5 5 5 4 4 6 $ e e 0 $ bXbXbX$ $ $ $ 0 nXq mXe q q 8 7 6 5 5 5 5 5 6 7 8 8 6 5 5 5 5 6 7 ",
"5 5 5 6 8 $ 0 q e L.0 # 1 # 4 5 5 T R 5 5 5 4 4 4 6 $ q e 0 0 0 0 nXnXnXq q q q e e q q q 7 5 5 6 E 6 5 5 6 7 7 7 5 5 5 5 5 6 7 ",
"8 8 8 8 $ nXq mXe L.0 # 1 # 4 5 6 T E 6 5 4 4 4 5 6 $ q e q 0 q L.L.e e e e e L.L.q q q q 7 5 5 E 7 6 6 Y 7 7 8 8 7 7 8 8 7 8 8 ",
"0 0 0 nXq e e e e L.0 4 1 # 4 5 T R E 6 5 4 5 5 5 7 $ q e q 0 0 0 0 7 6 5 5 4 4 5 Q q q q 8 5 6 7 8 8 8 E $ $ $ $ $ $ 0 0 0 0 0 ",
"e e e e e L.L.L.L.q $ 5 2 2 4 5 6 E 6 5 5 4 5 5 E 7 $ q e q 0 8 6 I I # 2 2 2 2 4 T Q q q $ 8 8 bX$ $ vX! nXnXnXnXq q mXmXmXmXmX",
"L.L.L.L.L.L.L.L.L.q $ 6 4 # # 4 5 5 5 5 5 5 5 5 7 8 vXq e L.q 6 I T E 4 # # # 4 E 6 ! e q nX0 0 nXnXnXq MXMXMXL.L.e e e e e e e ",
"q q q q q q q q q q $ 0 5 # # 4 4 5 6 5 5 5 5 6 W $ vXq e L.0 6 T W 6 5 6 Y Y 6 E 6 Q q q L.L.L.L.L.L.L.L.L.L.q q q q q q q q q ",
"$ 0 q q q q q q q q $ 0 6 4 # 4 5 T E 6 5 5 5 6 Q bX$ nXe L.0 6 Y W 6 5 T Y 6 6 W 6 ! q 0 0 $ $ $ $ e 0 0 0 0 0 0 0 0 0 0 0 0 0 ",
"5 6 6 6 6 6 7 7 $ L.e $ 0 5 4 W 6 E W 6 5 5 5 6 7 8 $ nXe e 0 Y Y 6 6 5 Y Y 6 6 Q $ nXq 0 Y R R $ $ 0 $ 7 7 6 6 6 6 6 6 6 6 6 5 ",
"6 T R 6 6 T E 8 bXnXe $ 0 6 5 Q 7 6 6 6 6 6 5 6 7 8 $ nXe e 0 Y 6 6 6 6 E Q 7 7 8 vXnXq q R R W $ L.0 7 6 T T T 6 R 5 4 T T T 4 ",
"T R W R R E Q bX$ nXe $ 0 7 6 7 7 7 7 7 7 7 7 8 8 8 $ q e e 0 7 6 6 6 Y 6 $ $ $ $ 0 q e q E W 6 vXe 0 7 T T T 6 Y E 5 5 T E W 6 ",
"R W 6 R E W Q $ vXnXe 0 $ 0 7 7 8 8 8 8 8 $ $ $ $ 0 nXmXe e L.7 7 7 8 8 vXnXnXq q q mXe vXE W 8 vXe 0 6 T T 6 6 E E 6 6 T E W 7 ",
"W 6 6 R E Q Q $ vXq e 0 $ 0 $ $ $ 0 nXnXnXnXq q e e e e e e L.8 8 $ vXnXe e e e e e e e bX7 W 7 $ e 0 6 5 5 5 5 E 6 5 5 T E W 7 ",
"5 5 5 R Q 6 8 bX$ q e 0 $ 0 L.L.L.L.e e e e e e e e e e e e L.q 8 bXe e e e L.L.L.L.L.L.6 4 4 5 bXe 0 6 5 4 4 4 5 5 5 4 5 E Q 6 ",
"5 5 6 7 7 7 7 8 $ q e q $ $ 0 q e e e e e e e e 0 0 0 0 0 0 8 5 5 6 E E E E E 6 6 L.q 8 4 2 # 4 8 e 0 7 5 4 Y 4 4 4 4 4 4 5 6 5 ",
"5 T E 6 6 6 6 8 0 q e q 5 T T R E 8 7 7 8 8 q 0 8 E T T T R 4 # 2 # T T T T R E W e q 6 # 1 2 4 7 e 0 7 5 4 4 4 4 4 Y 5 5 5 5 4 ",
"5 E W 6 5 5 7 8 0 q e q T R R E 6 7 7 7 8 q $ 0 E T R 6 6 5 4 # # 4 E 6 E W E W Q e q 6 # 2 # 4 Y e 0 Y 6 5 5 5 Y Y 6 6 5 5 5 5 ",
"6 W 7 6 6 7 8 $ nXmXe q R E W 6 7 7 8 8 $ e $ 0 5 # 4 5 E 6 T 4 4 4 5 6 W 6 E Q ! e q 6 Y 4 4 5 E e 0 E ! 8 7 Y R W Q ! 8 8 8 7 ",
"8 bXbXbXbX$ 0 q mXmXe q R W 6 7 6 W E Q vXe 0 0 5 2 Y 6 6 T W 6 T T 5 5 W 6 6 6 ! e q 7 R 5 4 5 Q e 0 ! 6 nX6 ! ! ! ! 6 0 vX$ $ ",
"0 0 0 nXnXnXe e e e L.q R W 6 6 6 6 W Q 0 e 0 0 5 2 T 6 T E 6 5 T W 5 5 6 6 7 $ ~ e q 7 5 4 # 5 ! e 0 L.L.e e e e e e e e q q nX",
"e e e e e e L.L.L.0 0 0 5 5 5 5 W 7 W Q vXe q 0 5 2 R 6 T Q 6 5 5 5 4 5 R W 7 $ ~ e q Y # 2 2 4 bXe 0 q q q q L.L.L.e e e e e e ",
"0 $ bXbX8 7 7 7 7 8 0 e 4 # 4 5 W 6 7 8 $ ~ e 0 5 2 R 6 E Q 6 5 4 4 4 5 R W 8 $ ~ e q R 2 2 2 5 bXe 0 q q q q q q q q q q q q q ",
"8 7 6 R R 6 5 4 5 5 8 e 4 # # 4 Q 6 6 7 bX~ e 0 5 # 6 T E Q 6 5 4 4 4 5 R W 8 $ ~ e Q E 2 2 4 R $ e 0 Q E E E R R W W 0 0 0 0 $ ",
"8 6 R R W 6 4 4 5 6 8 e # 2 # 4 5 6 6 7 bX~ e 0 7 5 T E Q 6 6 5 4 4 5 5 R W bXvX~ e q E # 2 R E 6 e 0 bXE Q E E E R R R W $ vX$ ",
"8 R E W 7 6 5 R R 7 bXe # 2 # 4 5 W 5 6 bX~ e q $ 5 E Q 6 6 6 5 4 5 5 6 R W bX0 MXe q E # # R Q 6 e 0 7 6 6 E E W W Q Q Q $ vX$ ",
"8 R E 6 6 5 6 R W 8 $ e 4 # # 4 4 5 5 6 bX~ e L.$ 5 # 6 T T E 6 5 5 5 6 R W $ 0 mXe Q 5 # # R ! 6 e 0 5 4 6 E Q 6 6 ! 8 8 bX0 0 ",
"8 6 5 5 5 5 6 R Q bX$ e 4 # # 4 4 5 5 7 bX~ e L.$ 5 2 # T W Q 6 5 5 5 6 E W $ nXe e E 5 # 4 W Q ~ e 0 4 # 5 E Q 7 6 7 7 7 bX0 0 ",
"8 5 4 4 5 5 R E Q $ $ e 4 # # 4 T R 5 6 bX~ e e 0 6 # # W Q 8 6 5 5 5 R E 6 $ nXe e 0 6 4 6 Q ! ~ e 0 5 4 5 E Q 7 6 5 5 6 8 0 0 ",
"8 # # 4 5 5 W Q Q $ $ e 4 2 # 5 R W 6 6 bX~ ~ e 0 $ 4 4 Q 7 7 6 5 6 W 8 8 8 $ q e q 0 8 7 8 Q ~ ! q 0 6 5 6 E W 7 4 6 7 8 $ nXq ",
"8 # # 4 5 6 Q Q 8 8 $ e 4 # # 4 5 5 5 6 8 ~ ~ e q $ 6 5 5 7 7 7 8 8 $ $ bX$ 0 q e q 0 $ q q ! ! q q 0 $ $ $ 0 0 vX$ $ $ $ nXq q ",
"8 # 2 4 R W 6 6 7 7 $ e 5 # # 4 4 5 5 6 8 0 ~ e q $ 0 7 7 8 $ $ $ 0 nX~ 0 0 nXe e q 0 $ 0 0 q q q 0 0 e e e e e e e e e e e e q ",
"8 # # 4 5 6 6 R E 8 $ e 6 # # 4 4 5 5 5 7 $ ~ e L.0 0 q L.L.L.e e L.L.L.q q q q q q 0 0 0 0 0 0 0 0 0 0 0 0 q q q q q q q q q q ",
"8 5 R R 5 5 R E W bXvXe 7 # # 4 5 5 5 5 7 $ ! e L.0 0 0 q q q q q 0 0 0 $ 8 8 8 8 7 7 6 6 7 7 6 W W W W 7 7 7 7 7 7 8 8 8 $ q $ ",
"8 R R W 5 5 E Q Q $ 0 e 0 # # 4 E 6 5 5 7 $ ! e L.q 8 E E E E E E E W 8 7 5 5 5 5 5 4 4 4 4 5 T T T R W 5 4 Y R 5 T R W 7 8 q $ ",
"8 R W 6 5 5 6 Q Q $ e L.0 # # 5 W 6 5 5 8 $ ! e e q Q T T T T T T T T E 5 # # # # # # # # # T R W W W 6 6 Y R 4 6 R R R W $ L.0 ",
"8 R W 6 5 5 5 6 7 vXe L.0 # # 4 5 6 5 5 8 vX! e e q Q T R R R R R R R W 5 4 # # # T E 4 # 4 R W 6 6 T T R 6 5 4 R E R W 6 $ L.0 ",
"8 R W 6 5 4 4 5 7 $ e q 0 4 # 4 4 5 5 5 8 vX~ e e q L.R R E E E E E E W Q 5 # # # E E 4 # 4 4 4 5 T R R 6 5 4 4 5 6 R 6 8 vXL.q ",
"0 W 7 5 5 5 5 6 8 0 e q 0 4 4 4 4 4 5 5 8 vXMXe e q L.7 5 6 E W E W W Q Q 6 # # 4 5 5 4 4 4 4 4 T 5 6 6 4 # # 4 5 6 R 7 8 $ L.q ",
"0 8 7 6 6 6 7 8 $ e L.q 0 5 4 4 4 4 5 6 8 $ q e e q L.5 2 4 E Q Q Q Q 6 7 5 4 # # 4 4 4 4 T T 4 5 5 5 5 5 Y R 4 4 5 R 7 8 $ L.q ",
"0 bX8 8 8 8 $ $ nXe L.q 0 6 5 5 5 5 6 8 $ 0 q e e q L.4 2 # W 7 7 8 6 6 6 5 E 4 # # 4 4 T 6 5 5 4 5 5 4 2 R W 4 4 5 6 7 8 vXe q ",
"0 q e $ 0 0 0 nXq e q 0 0 8 8 8 8 8 $ $ $ nXmXe e q L.5 2 2 5 6 6 6 R R W 5 4 4 # # # 4 4 6 R 5 R 4 4 4 R W 5 4 4 4 R R 8 vXe q ",
"$ $ $ L.L.e e L.e L.q 0 q nXnXnXnXnXnXq q mXL.e e L.L.6 # 4 5 5 5 6 R R Q 6 5 4 4 4 4 4 Y R Q 5 4 # 4 4 4 5 4 4 4 4 5 6 8 vXe q ",
"0 0 0 0 q q L.L.L.L.q 0 q q e e e e e e e e e e e e L.8 6 6 8 8 8 8 W Q Q 7 5 5 5 5 5 Y R Q 6 5 5 4 4 4 5 5 5 5 T 5 5 6 8 0 e q ",
"0 8 6 T T T E 6 bX$ $ $ q q L.L.L.L.L.L.L.L.L.L.L.L.q $ 0 q L.L.L.L.L.L.0 bX8 7 7 R 6 Q Q 6 7 7 7 7 6 6 6 7 7 7 7 7 7 8 $ nXe q ",
"0 6 T Y T T T T R E 6 6 8 6 6 6 q q q q q q q q q q 0 $ 0 0 q q q q q q L.0 $ $ $ $ $ vX0 vX$ $ $ $ $ $ $ $ $ $ $ vX$ 0 nXe L.q ",
"0 5 T Y R 6 4 4 4 4 # R Y Y T T T R R R R R W 6 8 8 7 7 $ $ 0 0 0 0 0 q q L.L.L.L.L.e e L.L.L.L.L.L.e e e e e e e e e e e L.q 0 ",
"0 5 # 4 R 4 # # # # 2 # # 4 6 E E E E E E E E W 6 5 4 4 5 5 5 6 8 0 $ 0 q q q q q q q q q L.L.L.L.L.L.L.L.L.L.L.L.L.L.L.q q 0 0 ",
"0 5 2 2 # # # # 4 # # 2 2 2 # 4 5 6 6 6 6 W W W 5 4 # # Y Y 5 5 8 q 0 $ 0 0 0 q q q q q q q q q q q q q q q q q q q q q 0 0 0 $ ",
"0 4 # 2 # # 4 Y R W 4 2 2 2 2 # # T E 5 5 5 5 5 5 4 # # Y W 6 7 $ e q $ 0 W R R R bX0 0 0 $ $ $ Q R E W Q Q ! 0 0 0 0 0 $ $ $ $ ",
"0 5 # # 4 5 6 R W ! 5 4 # # # 4 4 4 4 5 4 4 4 4 5 5 5 4 5 6 7 8 $ e q 0 0 R W W W 7 5 4 5 $ $ E T T T E 6 T 6 5 6 T 6 6 6 0 0 $ ",
"0 6 5 6 8 8 bXW ! $ 8 7 7 7 7 7 8 7 7 7 7 6 5 6 7 8 8 8 8 bX$ $ nXmXe q 0 6 W W Q 6 5 4 5 7 $ 7 6 6 6 6 6 5 4 4 T E 6 5 5 8 e $ ",
"0 8 8 $ nXnXnXq q nXnXnXnXnXnXnXnXnXnXnX0 0 0 0 0 nXnXnXnXnXq q mXmXe L.0 bXW Q 6 7 6 5 6 8 0 7 6 5 5 6 T T 5 5 E W 6 5 5 8 e $ ",
"0 q e e e e e e e e e e e e e e e e e e e e e e e e e e e e e e e e e L.0 q ~ ! 0 $ $ $ $ $ 0 8 8 7 6 T T E 7 7 W 6 8 7 8 $ e $ ",
"$ 0 q q q L.L.L.L.L.L.L.L.L.L.L.L.L.L.L.L.L.L.L.L.L.L.L.L.L.L.L.L.L.L.L.q 0 ~ ~ q e e e e e q 0 $ $ Q ! 6 6 vXQ ! 0 vX$ $ nXe $ ",
"$ $ $ $ 0 0 0 0 0 0 0 0 q q q q q q q q q q q q q q q q q q q q q q q q q 0 0 0 0 q q q q q q 0 0 e e e e e e e e e e e e e e $ ",
"q q q q q q q q q q q q q q q q q q q q q q q q q q q q q q q q q q q q q q q q q q q q q q q q q q q q q q q q q q q q q q q q "
};
