/* XPM */
static char *_510255ea37843998360737266849b50rkZJC8QBhvBgMzDV[] = {
/* columns rows colors chars-per-pixel */
"64 64 256 2 ",
"   c black",
".  c #0000A8",
"X  c #00A800",
"o  c #00A8A8",
"O  c #A80000",
"+  c #A800A8",
"@  c #A85400",
"#  c gray66",
"$  c gray33",
"%  c #5454FC",
"&  c #54FC54",
"*  c #54FCFC",
"=  c #FC5454",
"-  c #FC54FC",
";  c #FCFC54",
":  c gray99",
">  c #ECECEC",
",  c gainsboro",
"<  c #D0D0D0",
"1  c #C0C0C0",
"2  c #B4B4B4",
"3  c gray66",
"4  c #989898",
"5  c gray55",
"6  c #7C7C7C",
"7  c gray44",
"8  c #646464",
"9  c gray33",
"0  c #484848",
"q  c gray22",
"w  c #2C2C2C",
"e  c #202020",
"r  c #FC0000",
"t  c #EC0000",
"y  c #E00000",
"u  c #D40000",
"i  c #C80000",
"p  c #BC0000",
"a  c #B00000",
"s  c #A40000",
"d  c #980000",
"f  c #880000",
"g  c #7C0000",
"h  c #700000",
"j  c #640000",
"k  c #580000",
"l  c #4C0000",
"z  c #400000",
"x  c #FCD8D8",
"c  c #FCB8B8",
"v  c #FC9C9C",
"b  c #FC7C7C",
"n  c #FC5C5C",
"m  c #FC4040",
"M  c #FC2020",
"N  c #FC0000",
"B  c #FCA85C",
"V  c #FC9840",
"C  c #FC8820",
"Z  c #FC7800",
"A  c #E46C00",
"S  c #CC6000",
"D  c #B45400",
"F  c #9C4C00",
"G  c #FCFCD8",
"H  c #FCFCB8",
"J  c #FCFC9C",
"K  c #FCFC7C",
"L  c #FCF85C",
"P  c #FCF440",
"I  c #FCF420",
"U  c #FCF400",
"Y  c #E4D800",
"T  c #CCC400",
"R  c #B4AC00",
"E  c #9C9C00",
"W  c #848400",
"Q  c #706C00",
"!  c #585400",
"~  c #404000",
"^  c #D0FC5C",
"/  c #C4FC40",
"(  c #B4FC20",
")  c #A0FC00",
"_  c #90E400",
"`  c #80CC00",
"'  c #74B400",
"]  c #609C00",
"[  c #D8FCD8",
"{  c #BCFCB8",
"}  c #9CFC9C",
"|  c #80FC7C",
" . c #60FC5C",
".. c #40FC40",
"X. c #20FC20",
"o. c #00FC00",
"O. c #00FC00",
"+. c #00EC00",
"@. c #00E000",
"#. c #00D400",
"$. c #04C800",
"%. c #04BC00",
"&. c #04B000",
"*. c #04A400",
"=. c #049800",
"-. c #048800",
";. c #047C00",
":. c #047000",
">. c #046400",
",. c #045800",
"<. c #044C00",
"1. c #044000",
"2. c #D8FCFC",
"3. c #B8FCFC",
"4. c #9CFCFC",
"5. c #7CFCF8",
"6. c #5CFCFC",
"7. c #40FCFC",
"8. c #20FCFC",
"9. c #00FCFC",
"0. c #00E4E4",
"q. c #00CCCC",
"w. c #00B4B4",
"e. c #009C9C",
"r. c #008484",
"t. c #007070",
"y. c #005858",
"u. c #004040",
"i. c #5CBCFC",
"p. c #40B0FC",
"a. c #20A8FC",
"s. c #009CFC",
"d. c #008CE4",
"f. c #007CCC",
"g. c #006CB4",
"h. c #005C9C",
"j. c #D8D8FC",
"k. c #B8BCFC",
"l. c #9C9CFC",
"z. c #7C80FC",
"x. c #5C60FC",
"c. c #4040FC",
"v. c #2024FC",
"b. c #0004FC",
"n. c #0000FC",
"m. c #0000EC",
"M. c #0000E0",
"N. c #0000D4",
"B. c #0000C8",
"V. c #0000BC",
"C. c #0000B0",
"Z. c #0000A4",
"A. c #000098",
"S. c #000088",
"D. c #00007C",
"F. c #000070",
"G. c #000064",
"H. c #000058",
"J. c #00004C",
"K. c #000040",
"L. c #282828",
"P. c #FCE034",
"I. c #FCD424",
"U. c #FCCC18",
"Y. c #FCC008",
"T. c #FCB400",
"R. c #B420FC",
"E. c #A800FC",
"W. c #9800E4",
"Q. c #8000CC",
"!. c #7400B4",
"~. c #60009C",
"^. c #500084",
"/. c #440070",
"(. c #340058",
"). c #280040",
"_. c #FCD8FC",
"`. c #FCB8FC",
"'. c #FC9CFC",
"]. c #FC7CFC",
"[. c #FC5CFC",
"{. c #FC40FC",
"}. c #FC20FC",
"|. c #FC00FC",
" X c #E000E4",
".X c #C800CC",
"XX c #B400B4",
"oX c #9C009C",
"OX c #840084",
"+X c #6C0070",
"@X c #580058",
"#X c #400040",
"$X c #FCE8DC",
"%X c #FCE0D0",
"&X c #FCD8C4",
"*X c #FCD4BC",
"=X c #FCCCB0",
"-X c #FCC4A4",
";X c #FCBC9C",
":X c #FCB890",
">X c #FCB080",
",X c #FCA470",
"<X c #FC9C60",
"1X c #F0945C",
"2X c #E88C58",
"3X c #DC8854",
"4X c #D08050",
"5X c #C87C4C",
"6X c #BC7848",
"7X c #B47044",
"8X c #A86840",
"9X c #A0643C",
"0X c #9C6038",
"qX c #905C34",
"wX c #885830",
"eX c #80502C",
"rX c #744C28",
"tX c #6C4824",
"yX c #5C4020",
"uX c #543C1C",
"iX c #483818",
"pX c #403018",
"aX c #382C14",
"sX c #28200C",
"dX c #600064",
"fX c #006464",
"gX c #006060",
"hX c #00001C",
"jX c #00002C",
"kX c #302410",
"lX c #480048",
"zX c #500050",
"xX c #000034",
"cX c gray11",
"vX c #4C4C4C",
"bX c gray36",
"nX c gray25",
"mX c gray19",
"MX c #343434",
"NX c #D8F4F4",
"BX c #B8E8E8",
"VX c #9CDCDC",
"CX c #74C8C8",
"ZX c #48C0C0",
"AX c #20B4B4",
"SX c #20B0B0",
"DX c #00A4A4",
"FX c #009898",
"GX c #008C8C",
"HX c #008484",
"JX c #007C7C",
"KX c #007878",
"LX c #007474",
"PX c #007070",
"IX c #006C6C",
"UX c #980088",
/* pixels */
"e e e e e e e e e e e e e e e e e e e e e e e e e e e e e e e e e e e e e e e e e e e e e e e e e e e e e e e e e e e e e e e e ",
"e aXpXuXyXq nXpXtXyXyXyXnXnXpXpXtXnXuXtXtXuXvXuXyXiXpXpXkXkXMXbXrXpXbXyXq yXyXpXaXuXuXmXq 0 uXnXiXw iXpXpXpXiXaXnXuXpXnXpXaXpXe ",
"e kXpXiXiXMXcXw q 0 yXyXpXpXcXw $ vX$ nXq uXcXw 8 uXpXiXuX0 cXw iXpXaXiXyXpXcXw pXnXyXaXyXuXcXw aXpXiXuXw kXcXw rXuXpXvXuXMXpXe ",
"e L.kXq kXpX  cXtXnXuXpXnXpX  cX$ w uXaXiXpX  cXtXiX0 yXyXtX  cXyXuXuXuXpXkX  cXyXrXpXyXuXpX  cXmXq q pXkXpX  cXuXuXkXrXuXsXnXe ",
"e sXkXnXL.yXpXnXbXrXuXpXvXuXyXuXrXyXvXq nXpXpXpXpXnXyXaXyXuXpXaX$ 0 nXpXnXuX0 mXkXpXiXnXpXyXtXuXiXaXiXiXpXpXnXpXiXyXkXuXpXmXpXe ",
"e iXuXuXsX0 cX        cX    cX          cXe L.e sXsXcXcX          cX                        cXcXcX                  kXnXw iXaXe ",
"e cXkXiXiX0 w cXcXcXsXe cXsXkXsXsXe L.kXaXpXaXkXkXsXcXe cXsXcXcXcXsXcXcXcXcXcXcXcXcXcXcXcXsXe e cXcXcXcXcXcXcXcX    sXvXiXkXpXe ",
"e kXcXw cXvXuXpXmXpXpXaXkXaXpXaXaXMXq pXpXq pXaXpXaXaXL.L.kXkXkXkXkXL.e e sXe L.L.w w w mXaXw w L.e L.w L.e L.e cX  pXcXw kXkXe ",
"e kX  cXkX$ yXnXq q pXpXpXpXpXpXmXq q MXpXpXpXpXpXpXaXaXaXaXaXaXL.L.L.e kXkXkXkXaXmXmXmXMXmXmXmXmXmXmXw L.aXw kXcX  kX  cXpXvXe ",
"e w nXkXkX$ vXnXq q pXpXiXnXnXpXmXq nXq pXpXpXpXpXpXpXpXpXaXaXaXL.L.aXkXkXkXkXkXaXw MXMXMXw w MXMXmXmXw w w w L.cX  nXpXkXuXyXe ",
"e 0 iXiXw bX$ 0 q q mXpXnX0 nXmXMXnXnXMXmXpXpXpXiXiXuXpXaXaXaXaXaXaXaXaXkXL.L.aXaXMXq q mXw mXq mXaXmXmXMXmXw aXcX  nXnXuXiXpXe ",
"e pXiXpX0 bX$ nXq q MXpXnX0 q mXMXnXq mXmXMXpXpXiXiXiXpXaXaXaXkXaXaXaXaXw w w aXmXnXnXq mXmXMXMXaXaXpXMXmXw aXaXcXcXpXyXkXkXyXe ",
"e sXiXpXpX8 $ nXq q MXmXq nXnXq MXnXnXmXmXmXaXpXiXiXpXaXaXL.aXkXaXpXaXpXmXmXw L.mXq q MXMXMXmXaXaXpXpXpXpXpXw L.cX  pXuXaX$ $ e ",
"e yXuXkXsX7 $ nXq q MXMXq 0 0 nXMXnXnXMXpXpXpXpXiXpXmXaXaXw aXaXaXaXaXpXmXmXw aXmXMXmXmXMXmXL.L.w mXpXpXpXpXpXw cX  uXyXpX0 pXe ",
"e pXpX$ yX7 $ nXq MXMXMXnXvXvXnXq q q MXpXMXq q iXpXpXaXaXaXaXaXaXkXaXaXw w aXw MXmXmXmXmXw L.L.mXmXpXpXMXmXmXmXe cXq uXiXuXuXe ",
"e iXcXw pX8 vXnXpXq q MXnXvX0 q q q q mXmXnXnXq MXmXpXpXaXaXaXaXaXaXaXaXaXL.L.mXMXmXw mXmXw aXaXmXmXpXq q MXMXMXe   aXcXw pXyXe ",
"e w   cXiXbXvXnXq nXnXq q nXnXMXq q q mXmXnXq q q MXmXmXpXaXaXaXaXw mXmXw w w mXmXmXw mXmXaXaXmXmXmXMXq q MXmXw cX  0   cXuXnXe ",
"e pXaXnXw bXvXnXnXnXnXnXq q q MXMXMXmXw MXq MXMXq MXmXMXMXmXw mXmXw w mXmXw mXmXmXmXmXmXpXpXmXmXmXmXmXMXMXmXw L.cX  q 0 q yXq e ",
"e 0 nXq pX$ vX0 nXq nXnXq q q MXMXMXmXMXq MXMXMXq MXmXMXq mXw mXMXw w mXw w mXmXmXMXMXmXw mXmXw pXpXmXMXmXw w L.cX  aXiXpXiXpXe ",
"e MXuXpX0 $ $ 0 q q nXnXq MXpXpXMXq q q q q q MXq MXmXq MXw L.mXmXw w mXw w w w w mXmXw w mXw w mXmXMXMXmXw w L.cX  sXaXuXuXpXe ",
"e w uXpXMX8 $ yXiXq nXnXq q pXpXq q q MXq nXq MXnXq MXq MXw L.L.w w w w w w w w w mXmXmXmXmXw mXMXMXMXMXmXmXw e     uXiXvXq pXe ",
"e iXmXaXw bXvXuXiXnXnXnXq q MXMXq q MXMXnXnXMXq nXq MXq MXw L.w w w w mXmXw w w L.w w mXMXmXw mXmXmXmXmXmXmXL.sX    yXaXkXuXaXe ",
"e pXpXaXiXbXyXuXnXnXnXnXq q q MXq q MXq nXq q q q q q MXmXw mXmXmXmXMXq mXw L.L.L.w mXMXMXmXw w mXw w w w w L.cX    kXpXiXuXiXe ",
"e iXcXw pX8 vX0 0 0 nXnXq MXMXMXq MXMXq q q nXq q q q MXmXmXMXq q MXMXMXmXmXw w w mXMXMXMXmXw L.L.L.w w w L.e cX    vXcXw 0 yXe ",
"e yX  cXiXbX$ 0 nXnXnXnXq q MXMXmXmXq q q q q q nXq q mXmXmXMXq q q MXMXMXmXw L.w MXq MXmXmXL.L.L.L.w aXL.L.e cXcX  iX  cXyXpXe ",
"e aXuXiXyXbXbX0 nXnXnXq q q q MXmXMXq q q q q q q q MXmXmXmXMXq q MXMXq MXmXL.L.w mXMXmXmXmXL.L.L.w w w L.L.e cX    iXeXaXpXuXe ",
"e yXtXuXaX8 bX0 nXnXnXq MXMXq MXmXmXMXq q q q q q MXmXMXMXmXmXq q MXMXMXmXw L.L.w mXMXmXmXmXL.L.L.w w L.L.L.e sX    iXiXpXnXmXe ",
"e iX8 uXyX7 $ nXnXnXnXnXq mXMXmXmXmXq nXnXq q MXMXmXmXq MXw w MXMXq q MXmXw w w w mXmXmXmXmXL.L.w w w aXkXkXkXkXsX  yXuXyXaXpXe ",
"e tXtXq iX$ yXiXq cXcXw q nXnXq MXmXq q MXmXmXMXMXw MXq MXmXmXq nXq q q mXw w mXMXMXmXmXMXmXw w L.L.L.w w w L.e cX  iXyXtXtXpXe ",
"e q 0 q tX7 $ q q   cXw mXMXq mXw mXmXmXMXMXMXq MXmXMXMXmXmXmXq q MXMXq mXmXMXMXMXMXmXmXmXw L.L.w L.L.L.L.L.kXe cX  yXyX$ pXpXe ",
"e tXyXiXq 6 $ q q   cXw q MXMXw w mXw w mXmXmXq MXMXq MXmXmXMXMXq MXmXMXmXmXq q q MXmXmXmXw aXL.L.L.L.L.L.kXkXe cX  iXyX$ iXaXe ",
"e bXcXw tX7 $ q iX  cXw nXq mXw w aXaXaXw mXmXq q MXq MXMXMXMXq q q MXMXmXMXq MXMXMXmXw mXw L.L.L.aXL.w L.e e e cX  tXcXw iXiXe ",
"e yX  cXbX8 vXnXiX  cXw nXMXpXpXpXaXaXaXmXMXMXMXMXMXMXmXmXMXMXq nXq q q mXmXmXMXmXmXmXmXw L.L.L.aXaXL.w L.kXkXkXcX  pX  cXaXpXe ",
"e pXpXuXyX$ $ nXnX  cXw 0 MXpXMXmXw pXq q MXMXMXMXMXMXmXmXMXMXq nXq q MXmXw w mXmXmXmXw w w L.aXaXaXw aXaXkXaXkXcX  pXiXpXkXkXe ",
"e uXpXiXpXbXbX0 nX  cXw vXq iXq mXw mXMXmXmXmXMXMXMXMXmXMXq q q nXq MXmXmXmXmXMXMXMXMXw w w L.aXaXaXw w aXaXL.e cX  nXuXiXiX$ e ",
"e $ kXq uX8 bX0 q   cXw nXq pXmXw aXw mXaXpXq MXMXq q mXMXq q q nXq MXMXMXMXMXq q MXMXmXw w L.L.w w w L.L.aXL.kXsX  iXMX0 uXiXe ",
"e uXkXnX$ 8 $ nXMX  cXw MXq iXpXpXaXpXpXaXMXnXq q q MXmXMXq q q q MXMXMXmXmXmXMXMXMXmXmXw w L.w w w aXaXkXL.aXkXsX  vXpXuXpXiXe ",
"e vXuXuXuX8 $ 0 nX  cXw mXiXiXpXpXpXpXpXpXq nXq MXMXmXMXq q q q q MXMXMXmXmXMXMXmXmXmXmXmXpXw w w aXaXaXkXkXkXsXcX  0 uXtXiXpXe ",
"e q kXiXvX7 8 nXnX  cXcXmXiXiXpXaXmXMXpXmXq q q MXpXpXq q q q MXmXMXMXq MXMXq MXaXaXpXmXpXq pXw w aXaXaXaXaXkXcX    vXuXuXyXiXe ",
"e uXcXw q 8 $ nXq nXq pXMXpXmXw pXMXMXMXMXMXq mXw mXMXMXMXq MXmXmXMXq q MXMXmXMXq q q MXmXmXpXpXpXaXaXaXpXpXaXkXcX  uXcXw iXaXe ",
"e tX  cXuXbX$ uXiXq iXiXMXMXmXpXpXMXmXmXmXMXmXmXmXMXMXMXMXMXmXpXq q q MXmXmXmXMXMXMXMXMXmXmXMXmXpXaXaXaXpXw w kXcX  uX  cXyXq e ",
"e uXuXiXtXbX$ uXiXnXuXiXq MXmXaXmXMXw L.aXpXpXpXpXpXmXmXmXmXpXiXuXuXq mXw mXMXq q q MXMXMXMXMXmXaXaXaXaXaXw aXkXcX  pXrXpXpXiXe ",
"e uXpX$ uX8 bXyXnX0 uXq nXMXaXaXmXmXpXaXpXpXiXpXpXpXw w w w MXiXiXiXMXMXMXq q q q q q q q MXmXaXaXaXaXaXpXpXaXkXcX  nX0 iXiXMXe ",
"e uXuXyXuX8 $ nXnXyXuXq nXq aXaXpXpXpXpXiXuXiXMXpXpXpXpXpXpXq q mXpXiXq q nXnXnXq q nXnXq MXpXaXaXkXkXaXpXw pXL.cX  uXnXpXuXuXe ",
"e uXyXMXuXbX$ 0 nXnXq q q iXiXpXpXpXpXiXiXuXiXMXpXpXpXpXpXq q q MXiXuXnXnXnX0 nXnXq nXnXq MXpXpXaXkXL.aXw w w w cX  0 L.pXuXpXe ",
"e uXbXvXuXbX$ 0 q q q q iXuXuXiXiXiXiXiXiXiXq q q pXpXpXq q q q q uXyXnXnXnXnXnXq q q nXnXq MXMXpXaXaXw mXw w L.cX  0 pXq pXiXe ",
"e uX0 uXuX8 bX0 q nXnXq iXiXuXiXiXiXiXuXiXiXnXq q MXMXiXMXiXuXq q q nXnXnXnXnXnXq q q nXnXq q q MXpXaXw w aXaXkXcXcXvXtXpXtXuXe ",
"e q cXw uX8 bX0 nXnXnXnXnXq q MXmXMXq q q q q MXmXMXq iXpXiXuXnXq MXq nXq q nXnXq q q q q q q q pXaXaXaXL.kXaXL.sXcXtXcXw iXMXe ",
"e vX  cXq 7 $ 0 0 nXnX0 nXq q MXmXMXq q nXnXq mXMXq iXpXpXiXuXiXmXw mXq q q nXnXq q q MXMXq q q pXaXaXaXkXaXpXpXkXcXq   cXiXpXe ",
"e MXnXkXvX8 $ yXyX0 0 0 q MXq q MXMXq q nXnXnXq q uXiXpXpXiXiXpXaXaXpXq q q nXq MXMXMXpXiXiXiXpXpXpXpXaXaXaXpXpXsX  kX0 q 0 uXe ",
"e nXiXiXMX8 vXyXyXvX0 nXMXmXMXpXpXq nXnXnXnXnXq q iXpXpXiXpXpXaXaXpXMXMXq q q MXpXpXiXiXuXuXpXpXpXpXpXaXaXpXpXpXcX  pXiXpXnXuXe ",
"e 0 iXpXnXbXvXyXyXyXuXq iXpXpXpXpXq nXuXuXyXnXnXq pXpXpXiXpXpXaXpXpXMXq q q q q pXpXiXiXiXiXpXpXpXpXpXpXmXmXpXpXsX  nXaXuXpXuXe ",
"e 0 iXpX0 8 vXnXq uXuXq iXpXpXpXpXpXiXiXuXyXnXq iXiXpXpXpXpXpXpXpXpXq q nXq q q pXpXMXMXiXiXiXpXpXpXiXiXiXMXMXpXsX  yXiXvXnXyXe ",
"e $ uXkX0 7 $ nXq uXuXq MXpXiXpXpXpXiXuXuXuXuXiXiXpXpXpXpXpXpXpXpXMXq q q q MXiXpXMXq q pXiXiXiXpXpXiXuXiXiXMXpXsXsXpXaXkXmXyXe ",
"e nXpX$ $ 7 bXnXq nXnXq MXq q pXiXuXuXuXiXiXiXpXiXpXpXaXw aXpXpXMXq q iXuXiXiXiXpXMXq q MXpXiXiXpXpXiXiXuXiXMXpXsX  iXpX6 yXq e ",
"e uXcXw nX7 bXnXq nXnXq q q MXiXnXyXuXuXiXiXiXiXiXiXpXpXmXaXpXpXq nXuXiXuXiXiXMXpXpXMXMXmXMXq pXpXpXiXuXuXq mXw sX  pXcXw yX0 e ",
"e yX  cXuX7 $ uXnXvX0 nXnXnXuXyX$ vXyXyXnXnXuXuXyXiXiXiXiXiXiXiXiXyXyXuXuXuXq q pXiXuXiXq nXnXyXuXuXyXyXnXq q MXe   pX  cXyXuXe ",
"e iXpXaXyX8 $ rXeX8 bX$ rXrXrX$ 8 bXrXrX$ $ tX$ $ 0 yXtXtXtXtXtXtX$ $ vX0 0 vX0 yXtXtXtXrXbXbXeXrXrXeXeX$ $ $ nXaXcXq nXw nXuXe ",
"e pXiXpXiX8 7 6 8X9X8 8 qXqXqX8 8 7 8 qX7 qXqX8 8 bXbXwXqXqXqXqXqX8 8 bXbXbXbXbXwXwXwXqXqX7 7 9XqXqX7 7 7 7 7 $ pXkXnXvXiX0 iXe ",
"e pXiXaXaXuXyXbXtXq $ $ iXiXpXvXq uXnXpXiXpXaXpXpXpXaXiXpXuXyXuXyXuXiXpXq 0 yXL.iXpXpXuXiXiXpXuXpXkXiXiXpXuXpXkXaXyXiXpXiXtXuXe ",
"e 0 nXpXnXuXcXw pXiXaXuXiXiXcXw vXyXrXq 0 tXcXw iXuX0 uXyXyXcXw yXyXuXtX$ nXcXw pXyXtXnXuXtXcXw pXtXpXuXaXuXcXw iXuXiXuXaXyXnXe ",
"e pXnXpXmXuX  cXpXyXpXyXpXmX  cXyXq uXuXyXuX  cXpXuXvXiXyXyX  cX0 uXq 0 q uX  cXyXyX$ vX$ nX  cXaXyXiXpXiX8   cXpXiXuXuXyXbXuXe ",
"e aXyXL.iX0 uXpXiXq iXkXkXuXyXuXuXq tXe iXiXkXsXiXiXiXuXpXpXuXyXnX0 nXmXpXkXuXyXuXuXq tXe iXiXkXsXiXiXiXuXpXpXuXyXnX0 nXmXpXpXe ",
"e e e e e e e e e e e e e e e e e e e e e e e e e e e e e e e e e e e e e e e e e e e e e e e e e e e e e e e e e e e e e e e e "
};
